<svg id="icon-configuration" xmlns="http://www.w3.org/2000/svg" xmlns:xlink="http://www.w3.org/1999/xlink" width="70" height="50" viewBox="0 0 70 50">
  <defs>
    <clipPath id="clip-path">
      <rect id="Rectangle_5461" data-name="Rectangle 5461" width="62.095" height="42.7" transform="translate(-1 0)" fill="#555" stroke="#555" stroke-width="0.5"/>
    </clipPath>
  </defs>
  <rect id="Rectangle_5451" data-name="Rectangle 5451" width="70" height="50" fill="none"/>
  <g id="Group_26664" data-name="Group 26664" transform="translate(5 4)">
    <g id="Group_26664-2" data-name="Group 26664" transform="translate(0)" clip-path="url(#clip-path)">
      <path id="Union_91" data-name="Union 91" d="M11928.716-16467.01a2.15,2.15,0,0,1-.812-.816l-2.478-4.279a2.227,2.227,0,0,1,.837-3.033l.012-.008a2.314,2.314,0,0,1,1.086-.285h4.942a2.224,2.224,0,0,1,2.217,2.217,2.248,2.248,0,0,1-.294,1.109l-2.577,4.445-.037.021a2.213,2.213,0,0,1-1.8.924A2.152,2.152,0,0,1,11928.716-16467.01Zm-2.249-6.441a.925.925,0,0,0,.091.7l2.485,4.293a.917.917,0,0,0,.323.318.937.937,0,0,0,.443.117.907.907,0,0,0,.787-.457l.1-.166.021-.008,2.383-4.113a.839.839,0,0,0,.12-.457.916.916,0,0,0-.916-.914h-4.942a.956.956,0,0,0-.46.131l0-.008A.925.925,0,0,0,11926.467-16473.451Zm10.4,3.795a.652.652,0,0,1-.655-.646.654.654,0,0,1,.65-.654h34.584a.651.651,0,0,1,.65.65v0a.654.654,0,0,1-.65.646Zm-24.213,0a.649.649,0,0,1-.651-.646.651.651,0,0,1,.646-.654h10.454a.647.647,0,0,1,.646.654.648.648,0,0,1-.646.646Zm42-8.432v-.008a2.117,2.117,0,0,1-.808-.812l-2.478-4.275a2.222,2.222,0,0,1,.837-3.037l0-.01a2.252,2.252,0,0,1,1.09-.285h4.942a2.216,2.216,0,0,1,2.217,2.217,2.217,2.217,0,0,1-.3,1.109l-2.573,4.447-.037.02a2.224,2.224,0,0,1-1.8.92h-.023A2.188,2.188,0,0,1,11954.652-16478.088Zm-2.245-6.447a.926.926,0,0,0,.091.709l2.486,4.287a.774.774,0,0,0,.323.32.882.882,0,0,0,.443.119.906.906,0,0,0,.787-.455l.1-.166.021-.008,2.382-4.115a.859.859,0,0,0,.12-.455.922.922,0,0,0-.915-.92h-4.943a.952.952,0,0,0-.464.137v0A.868.868,0,0,0,11952.407-16484.535Zm10.66,2.768a.654.654,0,0,1-.646-.65.647.647,0,0,1,.646-.65h8.374a.647.647,0,0,1,.646.65.647.647,0,0,1-.646.65Zm-50.414,0a.652.652,0,0,1-.655-.65.654.654,0,0,1,.655-.65h35.776a.648.648,0,0,1,.65.65.655.655,0,0,1-.65.65Zm47.319-9.285v-2.055a.185.185,0,0,0-.146-.211l-4.159-.734a.638.638,0,0,1-.514-.471,8.337,8.337,0,0,0-1.028-2.338.652.652,0,0,1,.009-.717l2.474-3.58a.158.158,0,0,0-.017-.2l-2.95-2.971a.24.24,0,0,0-.294-.012l-3.493,2.457a.663.663,0,0,1-.691.033,12.744,12.744,0,0,0-2.4-1.057.665.665,0,0,1-.443-.506l-.725-4.084a.354.354,0,0,0-.294-.2h-4.16a.256.256,0,0,0-.224.189l-.767,4.2a.655.655,0,0,1-.468.51,9.665,9.665,0,0,0-2.271.941.649.649,0,0,1-.684-.029l-3.51-2.371c-.107-.086-.183-.078-.228-.027l-3,3.012a.151.151,0,0,0-.029.2l2.357,3.492a.643.643,0,0,1,.046.65,14.21,14.21,0,0,0-.948,2.416.651.651,0,0,1-.515.455l-4.146.729a.177.177,0,0,0-.158.18l0,2.092a.652.652,0,0,1-.651.65.648.648,0,0,1-.65-.65v-2.059a1.456,1.456,0,0,1,1.239-1.492l3.745-.658a16.187,16.187,0,0,1,.746-1.9l-2.138-3.17a1.453,1.453,0,0,1,.187-1.873l2.933-2.928a1.413,1.413,0,0,1,1.989-.158l3.124,2.109a11.622,11.622,0,0,1,1.818-.754l.709-3.854a1.561,1.561,0,0,1,1.467-1.205h4.222a1.658,1.658,0,0,1,1.491,1.105.768.768,0,0,1,.029.1l.671,3.77a13.87,13.87,0,0,1,1.906.842l3.178-2.238a1.556,1.556,0,0,1,1.931.158l2.954,2.975a1.453,1.453,0,0,1,.17,1.873l-2.225,3.229a9.443,9.443,0,0,1,.845,1.93l3.75.658a1.481,1.481,0,0,1,1.23,1.518v2.029a.648.648,0,0,1-.65.65A.648.648,0,0,1,11959.973-16491.053Zm-10.1,0a6.559,6.559,0,0,0-6.542-6.559h-.008a6.659,6.659,0,0,0-6.638,6.566.656.656,0,0,1-.659.643.644.644,0,0,1-.642-.654,7.964,7.964,0,0,1,7.938-7.855h.012a7.862,7.862,0,0,1,7.839,7.863.647.647,0,0,1-.65.646A.648.648,0,0,1,11949.871-16491.053Z" transform="translate(-11912 16509)" fill="#555"/>
      <path id="Path_207007_-_Outline" data-name="Path 207007 - Outline" d="M24.03,18.85h-.008a.9.9,0,0,1-.89-.91,8.219,8.219,0,0,1,8.19-8.1h.011a8.109,8.109,0,0,1,8.089,8.111.9.9,0,0,1-.9.9h0a.9.9,0,0,1-.9-.9,6.307,6.307,0,0,0-6.291-6.309h-.009a6.412,6.412,0,0,0-6.39,6.32.912.912,0,0,1-.894.89Zm7.292-7.71h.009a6.807,6.807,0,0,1,6.791,6.809.4.4,0,0,0,.4.4h0a.4.4,0,0,0,.4-.4,7.608,7.608,0,0,0-7.589-7.611h-.011a7.717,7.717,0,0,0-7.69,7.606.4.4,0,0,0,.388.4.407.407,0,0,0,.412-.4A6.914,6.914,0,0,1,31.322,11.14Zm17.3,7.71a.9.9,0,0,1-.9-.9V15.917l-4.1-.72a.9.9,0,0,1-.713-.655,8.019,8.019,0,0,0-1-2.265.9.9,0,0,1,.017-1l2.428-3.52L41.486,4.866,38,7.316a.9.9,0,0,1-.517.162.911.911,0,0,1-.444-.116,12.507,12.507,0,0,0-2.353-1.036.9.9,0,0,1-.61-.7l-.72-4.043a.1.1,0,0,0-.066-.037H29.165l0,0L28.4,5.732a.9.9,0,0,1-.647.706,9.61,9.61,0,0,0-2.213.915.9.9,0,0,1-.949-.037L21.1,4.959,18.215,7.851l2.314,3.425a.9.9,0,0,1,.059.907,14.31,14.31,0,0,0-.932,2.371.905.905,0,0,1-.707.633l-4.1.721V17.94a.9.9,0,1,1-1.8,0V15.886A1.718,1.718,0,0,1,14.5,14.141l3.6-.632a16.1,16.1,0,0,1,.651-1.653l-2.06-3.05a1.705,1.705,0,0,1,.219-2.194l2.922-2.92a1.643,1.643,0,0,1,1.255-.574,1.67,1.67,0,0,1,1.069.387l2.993,2.017a11.58,11.58,0,0,1,1.581-.654l.686-3.729a1.813,1.813,0,0,1,1.7-1.388h4.244a1.9,1.9,0,0,1,1.715,1.275.819.819,0,0,1,.036.137l.648,3.628a14.4,14.4,0,0,1,1.665.732l3.06-2.153a1.84,1.84,0,0,1,1.008-.3,1.789,1.789,0,0,1,1.231.491l.006.006,2.952,2.972a1.7,1.7,0,0,1,.2,2.2l-2.136,3.095a9.9,9.9,0,0,1,.744,1.695l3.6.634a1.72,1.72,0,0,1,1.433,1.769V17.95A.9.9,0,0,1,48.622,18.85Zm-.4-2.957V17.95a.4.4,0,1,0,.8,0V15.907A1.22,1.22,0,0,0,48,14.647l-3.9-.687-.046-.145a9.4,9.4,0,0,0-.825-1.878l-.079-.137,2.316-3.356a1.2,1.2,0,0,0-.137-1.551l0,0L42.375,3.917a1.29,1.29,0,0,0-.885-.352,1.341,1.341,0,0,0-.731.221l-3.3,2.322-.136-.072a13.882,13.882,0,0,0-1.871-.823l-.137-.049-.7-3.914a.329.329,0,0,0-.015-.057A1.407,1.407,0,0,0,33.334.25H29.126A1.321,1.321,0,0,0,27.9,1.259l-.733,3.994L27.02,5.3a11.069,11.069,0,0,0-1.777.735l-.132.069L21.84,3.895a1.17,1.17,0,0,0-.756-.277,1.144,1.144,0,0,0-.879.4l-.015.016L17.255,6.97A1.2,1.2,0,0,0,17.1,8.52l0,0,2.221,3.287-.06.129a15.587,15.587,0,0,0-.734,1.866l-.046.144-3.9.685a1.214,1.214,0,0,0-1.032,1.233V17.94a.4.4,0,0,0,.8,0V15.853a.422.422,0,0,1,.363-.429l4.147-.73a.4.4,0,0,0,.314-.281,14.813,14.813,0,0,1,.964-2.454.4.4,0,0,0-.027-.4L17.757,8.067a.4.4,0,0,1,.06-.525l2.994-3a.35.35,0,0,1,.262-.115.479.479,0,0,1,.294.114l3.5,2.365a.4.4,0,0,0,.421.017,10.111,10.111,0,0,1,2.329-.963.4.4,0,0,0,.287-.314l.773-4.217a.506.506,0,0,1,.453-.375h4.184a.6.6,0,0,1,.5.34l.015.031.734,4.12a.4.4,0,0,0,.272.311,13,13,0,0,1,2.445,1.077.408.408,0,0,0,.2.051.4.4,0,0,0,.231-.072l3.5-2.46a.505.505,0,0,1,.28-.084.47.47,0,0,1,.322.122l.007.007,2.949,2.97a.4.4,0,0,1,.042.524l-2.468,3.577a.4.4,0,0,0-.007.444,8.518,8.518,0,0,1,1.06,2.406.4.4,0,0,0,.317.291l4.157.731A.434.434,0,0,1,48.222,15.893Z" fill="#555"/>
      <path id="Path_207008_-_Outline" data-name="Path 207008 - Outline" d="M17.811,42.536h0a2.432,2.432,0,0,1-1.221-.33,2.4,2.4,0,0,1-.9-.91L13.21,37.021a2.479,2.479,0,0,1,.922-3.37l.021-.013a2.492,2.492,0,0,1,1.207-.319H20.3a2.471,2.471,0,0,1,2.139,3.7l-2.617,4.516-.05.023A2.471,2.471,0,0,1,17.811,42.536Zm-3.406-8.467-.019.012a1.977,1.977,0,0,0-.743,2.691l2.478,4.276a1.909,1.909,0,0,0,.719.724,1.933,1.933,0,0,0,.971.263,1.97,1.97,0,0,0,1.6-.822l.039-.054.025-.012,2.537-4.377A1.971,1.971,0,0,0,20.3,33.819H15.361A1.99,1.99,0,0,0,14.406,34.069Zm3.406,7.162a1.147,1.147,0,0,1-.568-.151,1.088,1.088,0,0,1-.417-.414l-2.487-4.288a1.174,1.174,0,0,1,.432-1.606l.2-.112.016.023a1.235,1.235,0,0,1,.367-.071H20.3a1.172,1.172,0,0,1,1.168,1.168,1.117,1.117,0,0,1-.158.583L18.89,40.552l-.023.009-.055.093A1.162,1.162,0,0,1,17.812,41.231Zm-2.884-5.959a.674.674,0,0,0-.154.857l2.488,4.289a.593.593,0,0,0,.228.227.648.648,0,0,0,.322.087.662.662,0,0,0,.569-.33l.146-.246.019-.007,2.337-4.037a.623.623,0,0,0,.089-.327.672.672,0,0,0-.669-.671H15.367a.735.735,0,0,0-.339.1Zm44.517,4.32H24.864a.9.9,0,1,1,0-1.8H59.443a.9.9,0,1,1,0,1.8Zm-34.581-1.3a.4.4,0,1,0,0,.8H59.445a.4.4,0,1,0,0-.8ZM11.1,39.592H.652l0-.25v-.25H11.1a.4.4,0,0,0,0-.8H.652a.4.4,0,1,0,0,.8v.5a.9.9,0,0,1,0-1.8H11.1a.9.9,0,0,1,0,1.8ZM43.743,31.45a2.46,2.46,0,0,1-1.214-.322l-.107-.061,0-.011a2.413,2.413,0,0,1-.795-.841L39.15,25.939a2.481,2.481,0,0,1,.9-3.361l.01-.01.031-.017a2.566,2.566,0,0,1,1.207-.318h4.946A2.475,2.475,0,0,1,48.709,24.7a2.448,2.448,0,0,1-.334,1.232l-2.606,4.5-.051.029a2.482,2.482,0,0,1-1.969.982Zm-.861-.7a1.958,1.958,0,0,0,.861.2h.005a1.98,1.98,0,0,0,1.6-.819l.031-.043.026-.015,2.54-4.388a1.948,1.948,0,0,0,.266-.981,1.974,1.974,0,0,0-1.967-1.971H41.3a2.061,2.061,0,0,0-.938.24l-.006.006L40.326,23a1.98,1.98,0,0,0-.742,2.7l2.477,4.276a1.914,1.914,0,0,0,.716.72Zm.871-.6A1.149,1.149,0,0,1,43.187,30a1.053,1.053,0,0,1-.421-.417L40.281,25.3a1.181,1.181,0,0,1-.116-.9,1.151,1.151,0,0,1,.55-.705l.31-.173.008.047a1.174,1.174,0,0,1,.262-.036h4.949A1.177,1.177,0,0,1,47.412,24.7a1.138,1.138,0,0,1-.157.582l-2.426,4.187-.023.008-.053.091A1.153,1.153,0,0,1,43.754,30.15ZM40.863,24.2a.647.647,0,0,0-.215.333.679.679,0,0,0,.066.516L43.2,29.34a.554.554,0,0,0,.223.221l.006,0a.646.646,0,0,0,.319.085.654.654,0,0,0,.569-.329l.146-.248.021-.008,2.335-4.031a.64.64,0,0,0,.089-.328.676.676,0,0,0-.669-.674H41.3a.682.682,0,0,0-.336.1Zm18.58,3.285H51.069a.9.9,0,0,1,0-1.8h8.374a.9.9,0,0,1,0,1.8Zm-8.374-1.3a.4.4,0,0,0,0,.8h8.372a.4.4,0,0,0,0-.8Zm-14.637,1.3H.651a.9.9,0,1,1,0-1.8H36.431a.9.9,0,0,1,.9.9.9.9,0,0,1-.9.9ZM.651,26.183a.4.4,0,1,0,0,.8H36.43a.4.4,0,0,0,0-.8Z" fill="#555"/>
    </g>
  </g>
</svg>
