<svg id="icon-translation" xmlns="http://www.w3.org/2000/svg" width="70" height="50" viewBox="0 0 70 50">
  <rect id="Rectangle_5450" data-name="Rectangle 5450" width="70" height="50" fill="none"/>
  <g id="Group_26658" data-name="Group 26658" transform="translate(0.808 1.33)">
    <path id="Path_207016" data-name="Path 207016" d="M11196.469-16284.881a.6.6,0,0,1-.25-.812l4.528-8.548a.759.759,0,0,1,.119-.156,19.476,19.476,0,0,0,4.84-7.34,19.19,19.19,0,0,0,1.192-6.7,19.369,19.369,0,0,0-1.754-8.064l-4.286,3.176-5.312,3.93-11.3,8.352-3.159,2.332-6.407,4.731a19.206,19.206,0,0,0,12.861,4.9,18.985,18.985,0,0,0,6.34-1.074.6.6,0,0,1,.767.365.6.6,0,0,1-.365.767,20.246,20.246,0,0,1-6.741,1.143,20.385,20.385,0,0,1-14.216-5.725.607.607,0,0,1-.159-.265h0a.245.245,0,0,1-.007-.025s0,0,0-.008a.1.1,0,0,0,0-.017l0-.016s0-.007,0-.011a.076.076,0,0,1,0-.021.007.007,0,0,1,0,0l0-.026h0a.619.619,0,0,1,.038-.256h0c0-.008.007-.016.011-.024s0,0,0,0l.009-.02,0-.01a.081.081,0,0,0,.007-.013.17.17,0,0,1,.011-.018v0a.64.64,0,0,1,.083-.11.623.623,0,0,1,.113-.092l10.111-7.465,11.3-8.348,5.307-3.93,4.873-3.61.007,0,.029-.021.011-.006c.013-.008.025-.016.039-.022l.038-.018.009,0,.03-.012.014,0,.033-.01.007,0,.043-.008h.006l.042,0h0a.6.6,0,0,1,.431.136.619.619,0,0,1,.1.106.589.589,0,0,1,.078.144,20.49,20.49,0,0,1,2.168,9.191,20.356,20.356,0,0,1-1.267,7.118,20.74,20.74,0,0,1-5.069,7.729l-4.483,8.462a.6.6,0,0,1-.532.319A.58.58,0,0,1,11196.469-16284.881Zm-33.633-3.528a1.92,1.92,0,0,1-.983-.332l-3.672-2.4a.014.014,0,0,0-.008,0,2.01,2.01,0,0,1-.554-2.771,2.019,2.019,0,0,1,.75-.668.017.017,0,0,1,.013,0l1.468-.738a27.791,27.791,0,0,1-2.042-5.613,28.284,28.284,0,0,1-.807-6.733,27.972,27.972,0,0,1,4.708-15.593.6.6,0,0,1,.832-.164.6.6,0,0,1,.168.832,26.758,26.758,0,0,0-4.512,14.925,26.482,26.482,0,0,0,2.725,11.808l1.378-.693a2.016,2.016,0,0,1,.9-.214,1.989,1.989,0,0,1,1.786,1.1,2.056,2.056,0,0,1,.218,1,.014.014,0,0,1,0,.012l-.259,4.4a.749.749,0,0,1-.024.136,1.97,1.97,0,0,1-1.955,1.721Zm-3.913-5.106a.782.782,0,0,0-.3.263.8.8,0,0,0,.217,1.114l3.676,2.4a.028.028,0,0,1,.017.009.681.681,0,0,0,.36.122h.017a.77.77,0,0,0,.819-.733c0-.036.009-.073.017-.114l.254-4.271a.848.848,0,0,0-.086-.4.808.808,0,0,0-.717-.442.74.74,0,0,0-.356.09l-1.841.924a.483.483,0,0,1-.065.039.479.479,0,0,1-.1.043Zm55.155,1.6a.6.6,0,0,1-.168-.832,26.755,26.755,0,0,0,4.508-14.925,26.573,26.573,0,0,0-2.509-11.345l-.65.583h0a2,2,0,0,1-1.331.509,1.968,1.968,0,0,1-1.483-.673,1.962,1.962,0,0,1-.455-.913l-.89-4.263c0-.012-.008-.028-.012-.045a1.988,1.988,0,0,1,1.532-2.353,2.09,2.09,0,0,1,.418-.04,1.863,1.863,0,0,1,.619.1l4.172,1.356a1.979,1.979,0,0,1,1.159,1,1.952,1.952,0,0,1,.1,1.532,2.037,2.037,0,0,1-.545.84l-.013.013-1.686,1.511a27.906,27.906,0,0,1,2,5.611,28.269,28.269,0,0,1,.775,6.569,27.965,27.965,0,0,1-4.709,15.593.607.607,0,0,1-.5.267A.588.588,0,0,1,11214.078-16291.913Zm-1.217-33.079a.787.787,0,0,0-.5.34.779.779,0,0,0-.119.545c0,.013.009.024.013.037l.9,4.319a.756.756,0,0,0,.181.36.77.77,0,0,0,.586.267.808.808,0,0,0,.536-.205l1.178-1.055a.609.609,0,0,1,.137-.122l1.948-1.745a.882.882,0,0,0,.233-.356.794.794,0,0,0-.045-.6.782.782,0,0,0-.459-.4l-4.176-1.356a.017.017,0,0,0-.013,0,.734.734,0,0,0-.235-.038A.8.8,0,0,0,11212.861-16324.992Zm-18.057,29.9a1.839,1.839,0,0,1-.545-1.324,1.9,1.9,0,0,1,.533-1.319l.012-.013a1.837,1.837,0,0,1,1.336-.557,1.748,1.748,0,0,1,1.328.561,1.83,1.83,0,0,1,.549,1.328,1.759,1.759,0,0,1-.557,1.328,1.812,1.812,0,0,1-1.32.553A1.837,1.837,0,0,1,11194.8-16295.1Zm.718-1.955a.88.88,0,0,0-.263.631.834.834,0,0,0,.254.619.829.829,0,0,0,.627.262.8.8,0,0,0,.607-.258c.008,0,.012-.013.021-.021a.747.747,0,0,0,.25-.6.824.824,0,0,0-.263-.627l-.013-.013a.762.762,0,0,0-.6-.25A.8.8,0,0,0,11195.522-16297.052Zm-4.754,2.512a1.826,1.826,0,0,1-1.332-.557,1.8,1.8,0,0,1-.545-1.324,1.867,1.867,0,0,1,.537-1.328s0,0,.008,0a1.826,1.826,0,0,1,1.332-.557,1.813,1.813,0,0,1,1.077.339,1.936,1.936,0,0,1,.259.218l0,0,.009.009.01.011a1.849,1.849,0,0,1,.522,1.309,1.816,1.816,0,0,1-.545,1.324,1.835,1.835,0,0,1-1.336.557Zm0-1a.848.848,0,0,0,.627-.262.888.888,0,0,0,.191-.282.877.877,0,0,0,.063-.337.873.873,0,0,0-.2-.558c-.02-.023-.04-.047-.062-.069a.985.985,0,0,0-.156-.129.844.844,0,0,0-.467-.134.838.838,0,0,0-.549.2l0,0-.009.008c-.02.017-.04.035-.06.054a.9.9,0,0,0-.257.63.846.846,0,0,0,.25.619.862.862,0,0,0,.627.262Zm-5.368,1a1.841,1.841,0,0,1-1.336-.557,1.934,1.934,0,0,1-.26-.323,1.809,1.809,0,0,1-.285-1,1.849,1.849,0,0,1,.522-1.309l.01-.011.013-.013a1.935,1.935,0,0,1,.394-.3,1.813,1.813,0,0,1,.942-.252,1.814,1.814,0,0,1,1.327.553,1.778,1.778,0,0,1,.554,1.336,1.758,1.758,0,0,1-.554,1.332,1.83,1.83,0,0,1-1.327.549Zm0-1a.864.864,0,0,0,.627-.262s.008-.013.012-.017a.76.76,0,0,0,.242-.6.811.811,0,0,0-.2-.562c-.017-.02-.035-.038-.055-.058,0,0,0,0,0-.008a.865.865,0,0,0-.627-.263.847.847,0,0,0-.612.253l-.008.007a.879.879,0,0,0-.261.63.859.859,0,0,0,.063.337.888.888,0,0,0,.191.282.848.848,0,0,0,.627.262Zm-15.085-2.241h0a.591.591,0,0,1-.517-.295,19.777,19.777,0,0,1-1.549-3.246,20.334,20.334,0,0,1-1.267-7.118,20.429,20.429,0,0,1,5.918-14.425,20.388,20.388,0,0,1,6.43-4.418,20.335,20.335,0,0,1,7.839-1.7,2.46,2.46,0,0,1,.373-.021,20.338,20.338,0,0,1,8.4,1.795,20.45,20.45,0,0,1,6.721,4.848.6.6,0,0,1,.089.686.107.107,0,0,1-.008.015l0,.009a.59.59,0,0,1-.147.169l-.018.014-7.52,5.549a.625.625,0,0,1-.088.08l-3.409,2.52a.594.594,0,0,1-.082.054l-11.159,8.245a.564.564,0,0,1-.079.05l-9.56,7.072a.6.6,0,0,1-.356.115Zm-2.136-10.659a19.154,19.154,0,0,0,1.193,6.7,18.07,18.07,0,0,0,1.126,2.48l8.841-6.54c-.048-.854-.07-1.738-.07-2.628,0-1.679.071-3.283.215-4.783h-10.7A19.2,19.2,0,0,0,11168.18-16308.44Zm12.29.013c0,.594.013,1.187.033,1.769l8.874-6.552h-8.687C11180.546-16311.715,11180.47-16310.11,11180.47-16308.428Zm10.533-5.983,2.951-2.187c-1.182-6.713-3.736-11.193-6.4-11.193a1.062,1.062,0,0,0-.213.012c-.017,0-.029,0-.046,0-1.405.156-2.827,1.586-4,4.033a31.218,31.218,0,0,0-2.471,9.331Zm-11.389,0a32.107,32.107,0,0,1,2.6-9.852,11.563,11.563,0,0,1,2.211-3.271,19.468,19.468,0,0,0-15.292,13.123Zm12.728-10.905a26.051,26.051,0,0,1,2.688,7.925l6.287-4.637a19.4,19.4,0,0,0-10.639-5.513A10.249,10.249,0,0,1,11192.342-16325.316Z" transform="translate(-11153.81 16330.67)" fill="#555"/>
    <path id="Union_86_-_Outline" data-name="Union 86 - Outline" d="M11196.748-16284.562a.822.822,0,0,1-.4-.1.842.842,0,0,1-.415-.5.85.85,0,0,1,.062-.647l4.533-8.557a1.013,1.013,0,0,1,.159-.208l0,0a19.222,19.222,0,0,0,4.777-7.245,18.94,18.94,0,0,0,1.177-6.617,19.193,19.193,0,0,0-1.6-7.679l-4.037,2.991-5.312,3.93-14.462,10.684-6.158,4.547a19.012,19.012,0,0,0,12.464,4.637,18.736,18.736,0,0,0,6.257-1.06.841.841,0,0,1,.282-.049.853.853,0,0,1,.8.565.852.852,0,0,1-.517,1.086,20.491,20.491,0,0,1-6.825,1.157,20.632,20.632,0,0,1-14.39-5.795.864.864,0,0,1-.226-.374l-.013-.049-.017-.017,0-.118a.858.858,0,0,1,.048-.346v-.018l.034-.064v-.006l.035-.06a.958.958,0,0,1,.116-.153.856.856,0,0,1,.153-.126l21.407-15.808,10.173-7.535.025-.018.027-.02.026-.016c.017-.01.033-.02.051-.028l.007,0,.068-.03.021-.008.033-.011.022-.007.009,0,.042-.009.034-.006.028,0,.052,0c.02,0,.042,0,.065,0a.848.848,0,0,1,.541.2.856.856,0,0,1,.142.148.8.8,0,0,1,.107.192,20.74,20.74,0,0,1,2.189,9.293,20.6,20.6,0,0,1-1.282,7.205,21.014,21.014,0,0,1-5.1,7.795l-4.465,8.427A.844.844,0,0,1,11196.748-16284.562Zm4.218-9.558-4.526,8.544a.346.346,0,0,0,.146.473.329.329,0,0,0,.163.041.346.346,0,0,0,.311-.185l4.5-8.5.029-.028a20.508,20.508,0,0,0,5.008-7.636,20.1,20.1,0,0,0,1.251-7.031,20.232,20.232,0,0,0-2.142-9.079l-.011-.025a.355.355,0,0,0-.045-.082.389.389,0,0,0-.059-.062.35.35,0,0,0-.224-.081.09.09,0,0,0-.032,0l-.031,0a.236.236,0,0,0-.027.006h-.006l-.018.006-.023.01h0l-.021.01-.018.011-.029.02-10.18,7.54-21.429,15.822a.378.378,0,0,0-.068.056l-.014.016-.04.06,0,.01,0,0-.009.021-.006.013a.379.379,0,0,0-.019.085l0,0v.08l0,.01,0,.032.013.04a.361.361,0,0,0,.084.126,20.135,20.135,0,0,0,14.041,5.653,20.007,20.007,0,0,0,6.658-1.128.353.353,0,0,0,.213-.448.354.354,0,0,0-.332-.232.367.367,0,0,0-.116.02,19.215,19.215,0,0,1-6.423,1.089,19.514,19.514,0,0,1-13.028-4.967l-.229-.205.247-.183,9.566-7.063,11.3-8.352,5.312-3.93,4.533-3.358.129.279a19.683,19.683,0,0,1,1.776,8.169,19.442,19.442,0,0,1-1.208,6.791,19.725,19.725,0,0,1-4.9,7.432A.506.506,0,0,0,11200.966-16294.119Zm-38.007,5.96h-.135a2.169,2.169,0,0,1-1.11-.374l-3.681-2.4a2.261,2.261,0,0,1-.623-3.116,2.261,2.261,0,0,1,.833-.746.284.284,0,0,1,.052-.024l1.223-.614a28.04,28.04,0,0,1-1.953-5.441,28.528,28.528,0,0,1-.813-6.793,28.228,28.228,0,0,1,4.75-15.731.851.851,0,0,1,.707-.377.842.842,0,0,1,.473.145.832.832,0,0,1,.362.53.852.852,0,0,1-.125.646,26.512,26.512,0,0,0-4.471,14.787,26.251,26.251,0,0,0,2.589,11.471l1.151-.58a2.266,2.266,0,0,1,1.01-.24,2.241,2.241,0,0,1,2.01,1.236,2.319,2.319,0,0,1,.244,1.115.279.279,0,0,1-.006.052l-.258,4.372a1.015,1.015,0,0,1-.027.163A2.224,2.224,0,0,1,11162.959-16288.159Zm-.117-.5h.117a1.722,1.722,0,0,0,1.707-1.5l0-.018,0-.018a.537.537,0,0,0,.017-.088l.263-4.474a1.775,1.775,0,0,0-.192-.8,1.74,1.74,0,0,0-1.562-.961,1.753,1.753,0,0,0-.785.188l-1.6.807-.111-.227a26.745,26.745,0,0,1-2.75-11.918,27.011,27.011,0,0,1,4.554-15.063.358.358,0,0,0,.053-.269.34.34,0,0,0-.148-.215.351.351,0,0,0-.2-.062.351.351,0,0,0-.292.155,27.729,27.729,0,0,0-4.665,15.453,27.988,27.988,0,0,0,.8,6.674,27.526,27.526,0,0,0,2.023,5.563l.108.223-1.743.876a1.752,1.752,0,0,0-.611.559,1.759,1.759,0,0,0,.468,2.415l.029.019,3.669,2.4A1.666,1.666,0,0,0,11162.842-16288.659Zm.121-.7h0l-.061,0h-.017a.933.933,0,0,1-.439-.131h0l-.062-.041-3.681-2.4a1.051,1.051,0,0,1-.283-1.458,1.02,1.02,0,0,1,.393-.348l1.934-.971.018-.006a.219.219,0,0,0,.047-.02l.017-.009a.189.189,0,0,0,.031-.019l.016-.012.018-.009,1.838-.922a.994.994,0,0,1,.472-.118,1.054,1.054,0,0,1,.938.578,1.1,1.1,0,0,1,.114.522v.008l-.255,4.287,0,.016c0,.027-.009.055-.013.088A1.019,1.019,0,0,1,11162.963-16289.358Zm-.065-.5h.065a.519.519,0,0,0,.517-.5v-.015c0-.028.009-.07.017-.118l.253-4.251a.594.594,0,0,0-.06-.279.557.557,0,0,0-.493-.3.5.5,0,0,0-.238.06l-.006,0-1.825.916a.777.777,0,0,1-.074.043.679.679,0,0,1-.12.055l-1.9.953a.517.517,0,0,0-.2.174.549.549,0,0,0,.146.771l3.651,2.383a.3.3,0,0,1,.052.031A.431.431,0,0,0,11162.9-16289.86Zm51.513-1.7a.842.842,0,0,1-.472-.146.83.83,0,0,1-.361-.531.849.849,0,0,1,.124-.646,26.5,26.5,0,0,0,4.467-14.787,26.35,26.35,0,0,0-2.345-10.933l-.469.421h-.009a2.244,2.244,0,0,1-1.423.509,2.214,2.214,0,0,1-1.672-.759,2.209,2.209,0,0,1-.512-1.027l-.887-4.251c0-.015-.009-.032-.013-.049v0a2.2,2.2,0,0,1,.309-1.673,2.227,2.227,0,0,1,1.415-.977,2.311,2.311,0,0,1,.471-.046,2.113,2.113,0,0,1,.7.114l4.169,1.356a2.217,2.217,0,0,1,1.306,1.131,2.2,2.2,0,0,1,.115,1.726,2.279,2.279,0,0,1-.6.935.207.207,0,0,1-.025.024l-1.543,1.384a28.146,28.146,0,0,1,1.938,5.491,28.561,28.561,0,0,1,.782,6.628,28.219,28.219,0,0,1-4.751,15.731A.86.86,0,0,1,11214.41-16291.561Zm1.583-27.865.143.306a26.834,26.834,0,0,1,2.532,11.45,27,27,0,0,1-4.55,15.063.351.351,0,0,0-.052.268.338.338,0,0,0,.147.216.344.344,0,0,0,.2.063.36.36,0,0,0,.294-.158,27.726,27.726,0,0,0,4.665-15.451,28.03,28.03,0,0,0-.769-6.511,27.691,27.691,0,0,0-1.983-5.562l-.081-.169.14-.126,1.683-1.508.006-.006.006-.006a1.8,1.8,0,0,0,.479-.737,1.712,1.712,0,0,0-.09-1.34,1.727,1.727,0,0,0-1.014-.88l-4.177-1.357a1.6,1.6,0,0,0-.536-.088,1.841,1.841,0,0,0-.368.035,1.728,1.728,0,0,0-1.1.759,1.712,1.712,0,0,0-.24,1.3s0,.014,0,.021l.008.026.89,4.263a1.712,1.712,0,0,0,.4.8,1.718,1.718,0,0,0,1.3.589,1.751,1.751,0,0,0,1.165-.445l.07-.063h0Zm-19.853,25.136a2.075,2.075,0,0,1-1.513-.63,2.083,2.083,0,0,1-.618-1.5,2.139,2.139,0,0,1,.6-1.489l0,0,.015-.016a2.075,2.075,0,0,1,1.513-.63,1.991,1.991,0,0,1,1.508.637,2.072,2.072,0,0,1,.619,1.5,2,2,0,0,1-.632,1.507A2.052,2.052,0,0,1,11196.141-16294.29Zm-1.166-3.278a1.65,1.65,0,0,0-.465,1.147,1.592,1.592,0,0,0,.472,1.147,1.592,1.592,0,0,0,1.159.483,1.562,1.562,0,0,0,1.142-.478l.007-.007a1.519,1.519,0,0,0,.479-1.146,1.586,1.586,0,0,0-.477-1.152l0,0a1.507,1.507,0,0,0-1.146-.481,1.592,1.592,0,0,0-1.156.48Zm-4.206,3.278a2.071,2.071,0,0,1-1.509-.63,2.041,2.041,0,0,1-.618-1.5,2.108,2.108,0,0,1,.606-1.5l.074-.077h.01a2.061,2.061,0,0,1,1.437-.561,2.067,2.067,0,0,1,1.222.385,2.188,2.188,0,0,1,.291.245l.029.03a2.092,2.092,0,0,1,.589,1.479,2.055,2.055,0,0,1-.618,1.5A2.075,2.075,0,0,1,11190.769-16294.29Zm-1.205-3.236a1.616,1.616,0,0,0-.422,1.105,1.558,1.558,0,0,0,.471,1.146,1.588,1.588,0,0,0,1.156.484,1.592,1.592,0,0,0,1.159-.483,1.573,1.573,0,0,0,.472-1.147,1.609,1.609,0,0,0-.452-1.135l-.015-.016,0,0a1.634,1.634,0,0,0-.226-.189,1.554,1.554,0,0,0-.934-.294,1.587,1.587,0,0,0-1.155.483Zm-4.163,3.236a2.09,2.09,0,0,1-1.512-.629,2.181,2.181,0,0,1-.295-.367,2.053,2.053,0,0,1-.324-1.135,2.093,2.093,0,0,1,.586-1.476l0,0,0,0,.025-.025a2.167,2.167,0,0,1,.444-.344,2.064,2.064,0,0,1,1.068-.286,2.056,2.056,0,0,1,1.5.624,2.018,2.018,0,0,1,.629,1.515,2,2,0,0,1-.63,1.512A2.068,2.068,0,0,1,11185.4-16294.29Zm-1.166-3.279-.011.012a1.605,1.605,0,0,0-.454,1.137,1.563,1.563,0,0,0,.245.865,1.712,1.712,0,0,0,.228.283,1.58,1.58,0,0,0,1.158.482,1.585,1.585,0,0,0,1.151-.477l0,0a1.518,1.518,0,0,0,.476-1.15,1.534,1.534,0,0,0-.477-1.155l0,0a1.572,1.572,0,0,0-1.15-.479,1.575,1.575,0,0,0-.814.217,1.706,1.706,0,0,0-.345.267Zm11.906,2.279a1.08,1.08,0,0,1-.8-.334,1.08,1.08,0,0,1-.327-.8,1.131,1.131,0,0,1,.33-.8,1.051,1.051,0,0,1,.8-.338,1.013,1.013,0,0,1,.782.326l.01.01a1.073,1.073,0,0,1,.336.8,1,1,0,0,1-.322.779c-.008.008-.018.02-.031.031A1.05,1.05,0,0,1,11196.141-16295.29Zm0-1.771a.554.554,0,0,0-.439.184.632.632,0,0,0-.191.456.581.581,0,0,0,.182.442.579.579,0,0,0,.449.188.556.556,0,0,0,.427-.181l.033-.033h0a.5.5,0,0,0,.166-.416.573.573,0,0,0-.189-.45l-.02-.02A.512.512,0,0,0,11196.141-16297.061Zm-5.372,1.771a1.12,1.12,0,0,1-.8-.333l0,0a1.087,1.087,0,0,1-.32-.793,1.145,1.145,0,0,1,.322-.8l.013-.014.065-.059,0,0,.016-.014a1.092,1.092,0,0,1,.707-.252,1.1,1.1,0,0,1,.6.173,1.22,1.22,0,0,1,.2.163c.032.032.06.064.078.086l0,.007a1.12,1.12,0,0,1,.248.711,1.136,1.136,0,0,1-.081.432,1.125,1.125,0,0,1-.244.362A1.1,1.1,0,0,1,11190.769-16295.29Zm-.45-.688a.614.614,0,0,0,.45.188.6.6,0,0,0,.45-.188.624.624,0,0,0,.137-.2.625.625,0,0,0,.044-.241.618.618,0,0,0-.141-.4.6.6,0,0,0-.044-.049.761.761,0,0,0-.116-.1.6.6,0,0,0-.33-.093.587.587,0,0,0-.384.133l-.006.006-.009.008-.043.038a.649.649,0,0,0-.186.455A.6.6,0,0,0,11190.318-16295.979Zm-4.918.688a1.1,1.1,0,0,1-.8-.335,1.135,1.135,0,0,1-.246-.363,1.1,1.1,0,0,1-.081-.433,1.131,1.131,0,0,1,.328-.8l.006-.006.02-.019a1.1,1.1,0,0,1,.777-.314,1.117,1.117,0,0,1,.8.334l.075.073v.01a1.064,1.064,0,0,1,.254.723,1.012,1.012,0,0,1-.3.767.3.3,0,0,1-.025.029A1.122,1.122,0,0,1,11185.4-16295.29Zm-.447-1.58a.623.623,0,0,0-.184.449.607.607,0,0,0,.043.24.641.641,0,0,0,.14.2.6.6,0,0,0,.448.187.611.611,0,0,0,.437-.176.3.3,0,0,1,.025-.029l.007-.007a.517.517,0,0,0,.162-.419.568.568,0,0,0-.137-.4c-.012-.014-.025-.027-.04-.042l-.045-.045a.605.605,0,0,0-.409-.152.6.6,0,0,0-.439.184Zm-14.634-.661h0a.846.846,0,0,1-.737-.421,20.041,20.041,0,0,1-1.566-3.283,20.576,20.576,0,0,1-1.282-7.205,20.668,20.668,0,0,1,5.99-14.6,20.637,20.637,0,0,1,6.508-4.472,20.578,20.578,0,0,1,7.919-1.717,2.76,2.76,0,0,1,.393-.021,20.589,20.589,0,0,1,8.5,1.817,20.681,20.681,0,0,1,6.8,4.906.85.85,0,0,1,.129.964.191.191,0,0,1-.016.029.1.1,0,0,1-.008.014.834.834,0,0,1-.205.235l-.015.012-.011.008-7.5,5.535a.949.949,0,0,1-.1.092l-3.406,2.518a.713.713,0,0,1-.1.065l-11.148,8.237a.746.746,0,0,1-.094.061l-9.545,7.062A.861.861,0,0,1,11170.319-16297.531Zm17.22-31.219a2.273,2.273,0,0,0-.337.018l-.016,0h-.017a20.071,20.071,0,0,0-7.743,1.676,20.125,20.125,0,0,0-6.352,4.364,20.171,20.171,0,0,0-5.846,14.249,20.078,20.078,0,0,0,1.251,7.031,19.52,19.52,0,0,0,1.529,3.205.341.341,0,0,0,.3.173h.008a.357.357,0,0,0,.209-.066l9.576-7.085.02-.01a.342.342,0,0,0,.043-.028l11.188-8.263a.431.431,0,0,0,.04-.025l.013-.01,3.409-2.52a.378.378,0,0,0,.051-.046l.017-.02.021-.015,7.516-5.546.011-.009.006,0a.327.327,0,0,0,.083-.1l0-.007,0-.011a.347.347,0,0,0-.053-.4,20.192,20.192,0,0,0-6.639-4.788A20.1,20.1,0,0,0,11187.539-16328.75Zm-17.122,29.861-.138-.251a18.213,18.213,0,0,1-1.141-2.515,19.4,19.4,0,0,1-1.209-6.786,19.51,19.51,0,0,1,.608-4.833l.048-.187h11.174l-.026.273c-.142,1.482-.214,3.083-.214,4.76,0,.906.023,1.785.07,2.614l.007.135-.108.08Zm-1.441-14.072a18.981,18.981,0,0,0-.546,4.521,18.911,18.911,0,0,0,1.178,6.613,17.533,17.533,0,0,0,.976,2.194l8.5-6.288c-.042-.8-.063-1.641-.063-2.507,0-1.59.064-3.113.19-4.533Zm11.294,6.784-.017-.474c-.022-.638-.033-1.219-.033-1.777,0-1.666.074-3.283.222-4.808l.022-.226h9.673Zm.648-6.784c-.132,1.441-.2,2.966-.2,4.533,0,.411.006.835.019,1.284l7.879-5.817Zm10.167-1.2h-10.545l.035-.281a31.6,31.6,0,0,1,2.493-9.408c1.209-2.524,2.7-4.007,4.2-4.173l.019,0,.023,0a1.406,1.406,0,0,1,.244-.013c1.4,0,2.776,1.108,3.975,3.205a26.047,26.047,0,0,1,2.674,8.2l.027.151-.125.093Zm-9.978-.5h9.813l2.761-2.045a25.353,25.353,0,0,0-2.588-7.882c-1.1-1.932-2.329-2.953-3.541-2.953a1.056,1.056,0,0,0-.158.006l-.027.006h-.019l-.036,0c-1.316.151-2.663,1.533-3.792,3.892A30.73,30.73,0,0,0,11181.107-16314.661Zm-1.271.5h-11.05l.107-.328a19.728,19.728,0,0,1,5.859-8.779,19.506,19.506,0,0,1,9.63-4.513l.776-.126-.562.552a11.333,11.333,0,0,0-2.16,3.2,31.919,31.919,0,0,0-2.575,9.772Zm-10.356-.5h9.913a32.147,32.147,0,0,1,2.594-9.71,13,13,0,0,1,1.743-2.782A19.336,19.336,0,0,0,11169.479-16314.661Zm25.379-2.294-.074-.39a25.91,25.91,0,0,0-2.659-7.848,10.015,10.015,0,0,0-1.622-2.17l-.564-.555.78.129a19.628,19.628,0,0,1,5.818,1.934,19.535,19.535,0,0,1,4.957,3.65l.2.206-.232.171Zm-3.485-10.2a11.54,11.54,0,0,1,1.186,1.717,25.869,25.869,0,0,1,2.64,7.613l5.736-4.229A19.27,19.27,0,0,0,11191.373-16327.157Zm22.55,8.283a1.015,1.015,0,0,1-.771-.35,1,1,0,0,1-.24-.477l-.894-4.3a.2.2,0,0,1-.011-.029l-.008-.037a1.02,1.02,0,0,1,.156-.717,1.038,1.038,0,0,1,.652-.448.992.992,0,0,1,.514.021.287.287,0,0,1,.049.016l4.158,1.352a1.026,1.026,0,0,1,.606.528,1.048,1.048,0,0,1,.058.792l0,.006a1.122,1.122,0,0,1-.3.455l-1.966,1.761-.017.011a.344.344,0,0,0-.08.071l-.012.015-.014.013-1.178,1.055A1.056,1.056,0,0,1,11213.923-16318.874Zm-1.433-5.291c0,.007,0,.014.008.021l.006.022.9,4.319a.515.515,0,0,0,.118.241l.006,0a.519.519,0,0,0,.4.182.549.549,0,0,0,.369-.142l1.165-1.043a.884.884,0,0,1,.163-.146l1.935-1.733a.625.625,0,0,0,.164-.252.548.548,0,0,0-.032-.409.534.534,0,0,0-.313-.275l-4.191-1.361a.516.516,0,0,0-.268-.013.535.535,0,0,0-.339.232A.532.532,0,0,0,11212.49-16324.165Z" transform="translate(-11153.81 16330.67)" fill="#555"/>
  </g>
</svg>
