<svg id="icon-resources" xmlns="http://www.w3.org/2000/svg" xmlns:xlink="http://www.w3.org/1999/xlink" width="70" height="50" viewBox="0 0 70 50">
  <defs>
    <clipPath id="clip-path">
      <rect id="Rectangle_5462" data-name="Rectangle 5462" width="61.808" height="44.61" transform="translate(-1 -1)" fill="#555"/>
    </clipPath>
  </defs>
  <rect id="Rectangle_5453" data-name="Rectangle 5453" width="70" height="50" fill="none"/>
  <g id="Warstwa_2-2" transform="translate(5 5)">
    <g id="Group_26665" data-name="Group 26665" transform="translate(0 -1)">
      <g id="Group_26665-2" data-name="Group 26665" clip-path="url(#clip-path)">
        <path id="Path_207009" data-name="Path 207009" d="M36.935,18.51a.637.637,0,0,1-.13-.013.646.646,0,0,1-.5-.761,5.285,5.285,0,0,0,.107-1.123v-.135a5.943,5.943,0,0,0-5.937-5.928h-.008A6.03,6.03,0,0,0,24.409,16.6a5.261,5.261,0,0,0,.107,1.132.645.645,0,1,1-1.264.26,6.588,6.588,0,0,1-.133-1.4A7.326,7.326,0,0,1,30.412,9.26h.01A7.245,7.245,0,0,1,37.7,16.477v.136a6.483,6.483,0,0,1-.133,1.381.645.645,0,0,1-.631.516m9.379,0a.645.645,0,0,1-.645-.645v-3.24c0-.08-.034-.125-.084-.134l-3.822-.67a.645.645,0,0,1-.512-.469,7.92,7.92,0,0,0-.925-2.136.644.644,0,0,1,.016-.7l2.25-3.29a.109.109,0,0,0-.012-.138l-2.7-2.7a.185.185,0,0,0-.214,0L36.442,6.615a.645.645,0,0,1-.695.026A9.614,9.614,0,0,0,33.583,5.7a.644.644,0,0,1-.454-.507l-.658-3.75a.3.3,0,0,0-.244-.158H28.4a.167.167,0,0,0-.133.127l-.712,3.875a.645.645,0,0,1-.472.507,8.4,8.4,0,0,0-2.061.845.646.646,0,0,1-.681-.023L21.1,4.451c-.081-.063-.139-.056-.161-.028L18.211,7.17a.106.106,0,0,0-.026.139l2.172,3.182a.644.644,0,0,1,.042.656,12.568,12.568,0,0,0-.865,2.2.646.646,0,0,1-.508.457l-3.8.669a.121.121,0,0,0-.107.121v3.254a.645.645,0,1,1-1.29,0V14.6A1.411,1.411,0,0,1,15.011,13.2l3.4-.6a13.873,13.873,0,0,1,.667-1.691L17.122,8.039a1.381,1.381,0,0,1,.187-1.791l2.666-2.676.015-.016a1.316,1.316,0,0,1,.884-.445,1.348,1.348,0,0,1,1,.307l2.862,1.914a9.691,9.691,0,0,1,1.625-.668l.648-3.516A1.47,1.47,0,0,1,28.381,0h3.883A1.6,1.6,0,0,1,33.7,1.045a.758.758,0,0,1,.029.109l.6,3.433a10.915,10.915,0,0,1,1.706.738l2.908-2.02a1.483,1.483,0,0,1,1.828.148L43.49,6.169a1.4,1.4,0,0,1,.166,1.781L41.638,10.9a9.24,9.24,0,0,1,.743,1.718l3.425.6a1.4,1.4,0,0,1,1.153,1.434v3.211a.645.645,0,0,1-.645.645" fill="#555"/>
        <path id="Path_207009_-_Outline" data-name="Path 207009 - Outline" d="M23.884,18.76a.9.9,0,0,1-.877-.714,6.846,6.846,0,0,1-.138-1.454A7.576,7.576,0,0,1,30.411,9.01h.011A7.5,7.5,0,0,1,35.747,11.2a7.406,7.406,0,0,1,2.2,5.279v.135a6.7,6.7,0,0,1-.138,1.432.9.9,0,0,1-.876.716.9.9,0,0,1-.878-1.074,5.033,5.033,0,0,0,.1-1.07v-.14A5.694,5.694,0,0,0,30.473,10.8h-.008a5.78,5.78,0,0,0-5.806,5.8,5.056,5.056,0,0,0,.1,1.083.895.895,0,0,1-.877,1.076Zm6.528-9.25A7.076,7.076,0,0,0,23.369,16.6a6.353,6.353,0,0,0,.128,1.35.4.4,0,0,0,.774-.16,5.546,5.546,0,0,1-.112-1.186,6.28,6.28,0,0,1,6.305-6.3h.009a6.2,6.2,0,0,1,6.187,6.178v.134a5.534,5.534,0,0,1-.112,1.174.4.4,0,1,0,.774.158,6.2,6.2,0,0,0,.128-1.327v-.141A7.012,7.012,0,0,0,30.422,9.51Zm15.9,9.25a.9.9,0,0,1-.9-.9V14.716l-3.7-.648a.9.9,0,0,1-.711-.651,7.673,7.673,0,0,0-.9-2.068.894.894,0,0,1,.022-.979L42.32,7.176,39.759,4.615l-3.174,2.2a.9.9,0,0,1-.964.036,9.365,9.365,0,0,0-2.108-.913.9.9,0,0,1-.63-.7l-.648-3.694a.044.044,0,0,0-.018-.007H28.5l-.7,3.8a.9.9,0,0,1-.655.7,8.146,8.146,0,0,0-2,.82.9.9,0,0,1-.945-.032L21.024,4.7,18.462,7.272l2.1,3.078a.9.9,0,0,1,.058.91,12.318,12.318,0,0,0-.848,2.153.892.892,0,0,1-.7.634l-3.7.651v3.146a.895.895,0,1,1-1.79,0V14.608a1.657,1.657,0,0,1,1.392-1.656l3.251-.572a14.177,14.177,0,0,1,.571-1.447L16.916,8.18a1.628,1.628,0,0,1,.218-2.11L19.8,3.391a1.641,1.641,0,0,1,1.211-.537,1.609,1.609,0,0,1,1.011.363l2.73,1.826a9.977,9.977,0,0,1,1.39-.571l.624-3.382A1.712,1.712,0,0,1,28.372-.249h3.906A1.837,1.837,0,0,1,33.936.96a1.015,1.015,0,0,1,.04.149l.577,3.29a11.2,11.2,0,0,1,1.468.634l2.79-1.938a1.771,1.771,0,0,1,.962-.287,1.717,1.717,0,0,1,1.172.462l.007.006,2.716,2.716a1.648,1.648,0,0,1,.2,2.1l-1.931,2.824a9.519,9.519,0,0,1,.641,1.483l3.277.575a1.647,1.647,0,0,1,1.36,1.685v3.206A.9.9,0,0,1,46.314,18.76Zm-.4-4.131v3.236a.4.4,0,1,0,.79,0V14.643a1.146,1.146,0,0,0-.946-1.177l-3.575-.627-.046-.145a9.013,9.013,0,0,0-.723-1.672l-.076-.135L43.45,7.809a1.148,1.148,0,0,0-.136-1.463L40.6,3.633a1.218,1.218,0,0,0-.829-.325,1.272,1.272,0,0,0-.687.2l-3.03,2.1-.135-.073a10.685,10.685,0,0,0-1.667-.721l-.141-.047L33.484,1.2a.5.5,0,0,0-.019-.071A1.342,1.342,0,0,0,32.257.25H28.386a1.217,1.217,0,0,0-1.131.949L26.58,4.858l-.145.045a9.467,9.467,0,0,0-1.583.651l-.131.069L21.716,3.611A1.106,1.106,0,0,0,20.9,3.36a1.075,1.075,0,0,0-.716.354l-.032.035-2.671,2.68A1.131,1.131,0,0,0,17.328,7.9l2.04,2.988-.061.129a13.661,13.661,0,0,0-.655,1.66l-.046.144-3.551.625a1.156,1.156,0,0,0-.975,1.155v3.245a.395.395,0,1,0,.79,0V14.591a.37.37,0,0,1,.316-.368l3.8-.669a.4.4,0,0,0,.311-.281,12.818,12.818,0,0,1,.882-2.24.4.4,0,0,0-.026-.4L17.979,7.45a.356.356,0,0,1,.058-.459l2.725-2.739a.31.31,0,0,1,.232-.1.427.427,0,0,1,.258.1l3.234,2.166a.4.4,0,0,0,.417.014,8.647,8.647,0,0,1,2.122-.87.4.4,0,0,0,.29-.311l.715-3.89a.414.414,0,0,1,.361-.316h3.852a.549.549,0,0,1,.451.291l.018.035.665,3.789a.4.4,0,0,0,.278.31,9.865,9.865,0,0,1,2.221.961A.4.4,0,0,0,36.3,6.41l3.228-2.242a.448.448,0,0,1,.246-.073.4.4,0,0,1,.276.1l.006.006,2.7,2.7a.359.359,0,0,1,.042.456l-2.25,3.29a.394.394,0,0,0-.01.432,8.174,8.174,0,0,1,.954,2.2.4.4,0,0,0,.314.287l3.822.67A.363.363,0,0,1,45.919,14.629Z" fill="#555"/>
        <path id="Path_207010" data-name="Path 207010" d="M51.641,38.524a4.084,4.084,0,1,1,4.086,4.086,4.089,4.089,0,0,1-4.086-4.086m1.287,0a2.8,2.8,0,1,0,2.8-2.795,2.8,2.8,0,0,0-2.8,2.795m-27.108,0a4.085,4.085,0,1,1,4.085,4.086,4.089,4.089,0,0,1-4.085-4.086m1.29,0a2.795,2.795,0,1,0,2.8-2.795,2.8,2.8,0,0,0-2.8,2.795M0,38.524A4.084,4.084,0,1,1,4.087,42.61,4.089,4.089,0,0,1,0,38.524Zm1.287,0a2.8,2.8,0,1,0,2.8-2.795,2.8,2.8,0,0,0-2.8,2.795m53.971-8.61V26.406a1.015,1.015,0,0,0-1.015-1.015h-23.7v4.523a.643.643,0,0,1-.64.644h0a.641.641,0,0,1-.643-.64V25.391H5.918a1.014,1.014,0,0,0-1.012,1.015v3.508a.645.645,0,0,1-.646.644h0a.642.642,0,0,1-.644-.639V26.406a2.3,2.3,0,0,1,2.3-2.306H54.236a2.306,2.306,0,0,1,2.306,2.305h0v3.508a.645.645,0,0,1-.646.644h0a.643.643,0,0,1-.636-.644" fill="#555"/>
        <path id="Path_207010_-_Outline" data-name="Path 207010 - Outline" d="M55.727,42.86h0a4.336,4.336,0,1,1,4.331-4.336A4.346,4.346,0,0,1,55.727,42.86Zm0-8.172a3.836,3.836,0,1,0,3.831,3.836A3.845,3.845,0,0,0,55.727,34.688ZM29.905,42.86h0a4.336,4.336,0,1,1,4.335-4.336A4.346,4.346,0,0,1,29.9,42.86Zm0-8.172a3.836,3.836,0,1,0,3.835,3.836A3.845,3.845,0,0,0,29.9,34.688ZM4.087,42.86h0A4.345,4.345,0,0,1-.25,38.524v-.25h.009A4.334,4.334,0,1,1,4.087,42.86ZM.251,38.605a3.88,3.88,0,1,0,0-.081Zm55.478,2.964a3.045,3.045,0,1,1,0-6.09h0a3.045,3.045,0,0,1,0,6.09Zm0-5.59a2.545,2.545,0,1,0,2.545,2.545,2.554,2.554,0,0,0-2.545-2.545Zm-25.822,5.59a3.045,3.045,0,0,1,0-6.09h0a3.045,3.045,0,0,1,0,6.09Zm0-5.59a2.545,2.545,0,1,0,2.544,2.545A2.555,2.555,0,0,0,29.9,35.979ZM4.088,41.569a3.045,3.045,0,1,1,0-6.09h0a3.045,3.045,0,0,1,0,6.09Zm0-5.59a2.545,2.545,0,1,0,2.545,2.545,2.554,2.554,0,0,0-2.545-2.545ZM55.9,30.808h0a.9.9,0,0,1-.886-.895V26.406a.766.766,0,0,0-.765-.765H30.793v4.273a.893.893,0,0,1-.889.894H29.9a.893.893,0,0,1-.891-.889V25.641H5.918a.764.764,0,0,0-.762.765v3.508a.9.9,0,0,1-1.791.006V26.406a2.557,2.557,0,0,1,2.55-2.556H54.236A2.558,2.558,0,0,1,56.792,26.4v3.509A.9.9,0,0,1,55.9,30.808Zm-25.6-5.667h23.95a1.267,1.267,0,0,1,1.266,1.265v3.508a.394.394,0,0,0,.389.394v0a.4.4,0,0,0,.394-.395V26.406a2.058,2.058,0,0,0-2.056-2.056H5.915a2.056,2.056,0,0,0-2.05,2.056v3.508a.4.4,0,0,0,.791,0V26.406a1.264,1.264,0,0,1,1.262-1.265H29.507v4.773a.393.393,0,1,0,.786,0Z" fill="#555"/>
      </g>
    </g>
  </g>
</svg>
