<svg id="illustration" xmlns="http://www.w3.org/2000/svg" xmlns:xlink="http://www.w3.org/1999/xlink" width="251.746" height="253.232" viewBox="0 0 251.746 253.232">
  <defs>
    <clipPath id="clip-path">
      <path id="Path_14" data-name="Path 14" d="M131.135,314.536l-28.265,15.89V309.107a24.016,24.016,0,0,1,23.992-24.027h4.65Z" transform="translate(-102.87 -285.08)" fill="#1b67e0" stroke="#fff" stroke-width="1"/>
    </clipPath>
    <clipPath id="clip-path-2">
      <path id="Path_18" data-name="Path 18" d="M209.46,315.424l28.265,15.921V310a24.016,24.016,0,0,0-24-24h-4.65Z" transform="translate(-209.07 -286)" fill="#1b67e0" stroke="#fff" stroke-width="1"/>
    </clipPath>
    <clipPath id="clip-path-3">
      <path id="Path_23" data-name="Path 23" d="M194.227,236.933c-.843,22.093-4.222,39.495-9.514,51.467H141.379c-5.663-12.4-8.413-30.476-9.753-52.626a109.914,109.914,0,0,1,2.19-30.344c11.76-4.912,47.645-4.654,58.015,0A130.673,130.673,0,0,1,194.227,236.933Z" transform="translate(-131.38 -201.843)" fill="#a9beff" stroke="#fff" stroke-width="1"/>
    </clipPath>
    <clipPath id="clip-path-4">
      <path id="Path_29" data-name="Path 29" d="M307.115,165.18c-9.47-3.1-45.864-3.489-58.015,0,7.406-33.826,29.316-49.03,29.316-49.03S299.7,129.369,307.115,165.18Z" transform="translate(-249.1 -116.15)" fill="#c8cddb"/>
    </clipPath>
    <clipPath id="clip-path-5">
      <path id="Path_31" data-name="Path 31" d="M85.638,186.215c-.591,4.352,1.831,9.031,6.361,10.02,10.244,2.255,14.982-15.7,4.058-17.8C88.765,177.038,86.2,182.039,85.638,186.215Z" transform="translate(-85.55 -178.193)" fill="#fff" stroke="#c8cddb" stroke-width="1"/>
    </clipPath>
    <clipPath id="clip-path-6">
      <path id="Path_34" data-name="Path 34" d="M376.449,154.905c-2.177,3.779-6.921,6.046-11.144,4.062-9.5-4.459-2.322-21.583,7.62-16.589C379.557,145.723,378.563,151.252,376.449,154.905Z" transform="translate(-360.851 -141.475)" fill="#fff" stroke="#c8cddb" stroke-width="1"/>
    </clipPath>
    <clipPath id="clip-path-7">
      <path id="Path_41" data-name="Path 41" d="M89.856,241s.031,0,.038-.044a.952.952,0,0,0,.094-.731.938.938,0,0,0-.428-.561.905.905,0,0,0-.73-.094,3.024,3.024,0,0,1-.629.183,2.893,2.893,0,0,1-.522,0,2.86,2.86,0,0,1-.315-.076c-5.839-3.225-7.859-7.161-9.375-13.811-.849-3.779-.447-3.653-1.485-7.325-.9-3.193-1.976-7.28-4.033-9.113h0c-2.171-1.952-9.621-4.453-13.214-4.409-7.828.145-15.4,2.274-20.727,8.817-7.677,9.4-7.89,17.2-6.764,28.668.434,4.364,3.907,4.339,4.065.479a.905.905,0,0,0,.944,0,.964.964,0,0,0,.34-1.26,11.894,11.894,0,0,1-.629-1.26l-.164-.189-.126-.315c-.076-.2-.145-.409-.214-.63a11.12,11.12,0,0,1-.283-1.115,26.96,26.96,0,0,1,7.072-18.686,20.886,20.886,0,0,1,11.9-6.966,93.65,93.65,0,0,0-3.436,8.981A98.836,98.836,0,0,0,46.421,253.5c.094,8.66.459,17.206-1.051,25.778-1.4,7.91-2.945,12.709-5.33,20.374l-.076.189a2.578,2.578,0,0,0-.17.63l-.245.794c-.969,3.1,3.889,4.409,4.851,1.341.164-.529.327-1.058.5-1.593a155.809,155.809,0,0,0,11.6-46.517,68.558,68.558,0,0,1,6.921,15.04q1.787,7.91,3.064,15.921c.164,1.423.68,4.409.787,5.309.447,3.237.837,6.481,1.151,9.73a2.818,2.818,0,0,0,.12.592c0,.391,0,.775.038,1.165.157,3.231,5.191,3.25,5.034,0-.05-1.058-.094-3.18-.094-3.18v-1.3a132.368,132.368,0,0,0-7.286-45.623,9.079,9.079,0,0,1-.333-1.165,33.266,33.266,0,0,1,4.618-29.33c.812,2.9,1.309,5.889,2.517,9.756,2.347,7.558,6.588,11,13.843,14.038C90.649,247.033,93,243.022,89.856,241Z" transform="translate(-31.267 -205.019)" fill="#fff" stroke="#c8cddb" stroke-width="1"/>
    </clipPath>
    <clipPath id="clip-path-8">
      <path id="Path_47" data-name="Path 47" d="M341.281,224.322c-.831-7.469-1.145-15.153.749-22.49,1.888-7.211,5.537-13.736,9.149-20.154.547-.976.245-4.069-3.146-5.838-5.418-2.746-11.194-1.845-16.542.63-6.078,2.8-10.785,6.928-18.789,7.879a14.278,14.278,0,0,1-3-.208,17.515,17.515,0,0,1-7.809-3.206,8.728,8.728,0,0,0-.478-1.575,1.046,1.046,0,0,0-.428-.567.955.955,0,0,0-.73-.094.975.975,0,0,0-.566.435h0c-2.63-1.814-6.16,1.927-3.624,4.314,9.539,8.975,22.205,7.469,33.116,2.519-4.134,13.66-8.646,27.308-11.955,41.176a98.1,98.1,0,0,0-2.618,19.2,67.923,67.923,0,0,0,.315,11.966,98.893,98.893,0,0,0,1.963,12.734c.8,3.558,6.261,2.053,5.462-1.505a89.671,89.671,0,0,1-1.686-10.48c0-.063-.038-2.935-.057-3.6-.289-12.338,3.92-22.975,10.7-32.976,1.888,15.436,13.214,43.991,14.365,47.443s6.613,1.971,5.462-1.505a216.241,216.241,0,0,1-9.847-44.1Z" transform="translate(-295.191 -174.156)" fill="#fff" stroke="#c8cddb" stroke-width="1"/>
    </clipPath>
  </defs>
  <g id="Layer_7" data-name="Layer 7" transform="translate(0.001 0)">
    <g id="Group_24844" data-name="Group 24844" transform="translate(98.511)">
      <path id="Path_7" data-name="Path 7" d="M181.48,10.634A2.568,2.568,0,0,0,183.8,8.31c.333,1.348,1.019,2.236,2.328,2.324a3.5,3.5,0,0,0-2.328,2.324C183.758,11.73,182.908,11,181.48,10.634Z" transform="translate(-165.8 -3.076)" fill="#1b67e0" opacity="0.08"/>
      <path id="Path_8" data-name="Path 8" d="M156.56,2.324A2.568,2.568,0,0,0,158.882,0c.333,1.348,1.013,2.242,2.322,2.324a3.5,3.5,0,0,0-2.322,2.324C158.838,3.42,157.982,2.7,156.56,2.324Z" transform="translate(-156.56 0)" fill="#1b67e0" opacity="0.08"/>
      <path id="Path_9" data-name="Path 9" d="M162.1,31.864a2.568,2.568,0,0,0,2.322-2.324c.333,1.348,1.013,2.242,2.322,2.324a3.487,3.487,0,0,0-2.322,2.324C164.372,32.979,163.522,32.236,162.1,31.864Z" transform="translate(-158.615 -10.936)" fill="#1b67e0" opacity="0.08"/>
      <path id="Path_10" data-name="Path 10" d="M178.71,27.82a1.5,1.5,0,0,0,1.359-1.36c.189.787.591,1.31,1.353,1.36a2.027,2.027,0,0,0-1.353,1.354C180.038,28.456,179.522,28.06,178.71,27.82Z" transform="translate(-164.773 -9.795)" fill="#1b67e0" opacity="0.08"/>
    </g>
    <path id="Path_11" data-name="Path 11" d="M14.2,227.882c-13.881-22.4-21.394-58.319-4.4-84.393,11.735-18.012,30.908-24.808,40.9-28.341,37.886-13.421,53.849,5.851,78.653-7.558,27.51-14.882,20.519-45.44,44.046-53.533,22.1-7.608,52.905,10.883,67.327,33.379,26.377,41.151-.044,98.91-22.023,127.849-6.072,7.986-44.631,57-108.227,57.312C101.671,272.635,42.121,272.925,14.2,227.882Z" transform="translate(-0.001 -19.369)" fill="#1b67e0" opacity="0.05"/>
    <path id="Path_258695" data-name="Path 258695" d="M57.694,0c31.863,0,57.694,3.124,57.694,6.978s-25.83,6.978-57.694,6.978S0,10.832,0,6.978,25.83,0,57.694,0Z" transform="translate(57.083 217.62)" fill="#f6f9fe" style="mix-blend-mode: multiply;isolation: isolate"/>
    <path id="Path_12" data-name="Path 12" d="M131.135,314.536l-28.265,15.89V309.107a24.016,24.016,0,0,1,23.992-24.027h4.65Z" transform="translate(-38.142 -105.537)" fill="#1b67e0" opacity="0.5"/>
    <g id="Group_1" data-name="Group 1" transform="translate(64.728 179.543)" clip-path="url(#clip-path)">
      <path id="Path_13" data-name="Path 13" d="M120.352,286.825c-5.418.97-17.228,5.618-17.618,36.818S85.31,312.792,85.31,312.792L94.8,275.779l19.166-6.4,9.482,8.339Z" transform="translate(-96.359 -279.268)" fill="#1b67e0" opacity="0.28"/>
    </g>
    <path id="Path_15" data-name="Path 15" d="M131.135,314.536l-28.265,15.89V309.107a24.016,24.016,0,0,1,23.992-24.027h4.65Z" transform="translate(-38.142 -105.537)" fill="none" stroke="#fff" stroke-width="1"/>
    <path id="Path_16" data-name="Path 16" d="M209.46,315.424l28.265,15.921V310a24.016,24.016,0,0,0-24-24h-4.65Z" transform="translate(-77.519 -105.878)" fill="#1b67e0" opacity="0.5"/>
    <g id="Group_2" data-name="Group 2" transform="translate(131.552 180.122)" clip-path="url(#clip-path-2)">
      <path id="Path_17" data-name="Path 17" d="M214.632,287.749c5.418.97,17.228,5.618,17.618,36.818s17.423-10.851,17.423-10.851L240.185,276.7l-19.166-6.392-9.489,8.332Z" transform="translate(-209.982 -280.192)" fill="#1b67e0" opacity="0.28"/>
    </g>
    <path id="Path_19" data-name="Path 19" d="M209.46,315.424l28.265,15.921V310a24.016,24.016,0,0,0-24-24h-4.65Z" transform="translate(-77.519 -105.878)" fill="none" stroke="#fff" stroke-width="1"/>
    <path id="Path_20" data-name="Path 20" d="M194.227,236.933c-.843,22.093-4.222,39.495-9.514,51.467H141.379c-5.663-12.4-8.413-30.476-9.753-52.626a109.914,109.914,0,0,1,2.19-30.344c11.76-4.912,47.645-4.654,58.015,0A130.673,130.673,0,0,1,194.227,236.933Z" transform="translate(-48.713 -74.723)" fill="#1b67e0"/>
    <g id="Group_3" data-name="Group 3" transform="translate(82.667 127.12)" clip-path="url(#clip-path-3)">
      <path id="Path_21" data-name="Path 21" d="M157.981,142.31c-7.224,19.083-14.265,68.453-12.056,97.575-11.074-52.065,4-95.225,4-95.225Z" transform="translate(-135.267 -179.804)" fill="#fff" opacity="0.39"/>
      <path id="Path_22" data-name="Path 22" d="M157.536,183.54c-4.455,19.184-8.136,57.746,1.548,102.317s-23.621-1.745-23.621-1.745L121.33,229.27l3.87-39.721Z" transform="translate(-127.654 -195.067)" fill="#fff" opacity="0.28"/>
    </g>
    <path id="Path_24" data-name="Path 24" d="M194.227,236.933c-.843,22.093-4.222,39.495-9.514,51.467H141.379c-5.663-12.4-8.413-30.476-9.753-52.626a109.914,109.914,0,0,1,2.19-30.344c11.76-4.912,47.645-4.654,58.015,0A130.673,130.673,0,0,1,194.227,236.933Z" transform="translate(-48.713 -74.723)" fill="none" stroke="#fff" stroke-width="1"/>
    <path id="Path_25" data-name="Path 25" d="M249.1,189.787a123.39,123.39,0,0,0,28.214,3.294,147.854,147.854,0,0,0,29.8-3.294l-2.706-7.167-53.05.579Z" transform="translate(-92.361 -67.606)" fill="#2f405a"/>
    <path id="Path_26" data-name="Path 26" d="M307.115,165.18c-9.47-3.1-45.864-3.489-58.015,0,7.406-33.826,29.316-49.03,29.316-49.03S299.7,129.369,307.115,165.18Z" transform="translate(-92.361 -42.999)" fill="#1b67e0"/>
    <g id="Group_4" data-name="Group 4" transform="translate(156.739 73.151)" clip-path="url(#clip-path-4)">
      <path id="Path_27" data-name="Path 27" d="M266.585,162.438c-.774-5.668-5.663-31.263,8.52-56.846s-22.47-7.236-22.47-7.236l-14.2,54.792,4.644,9.56Z" transform="translate(-245.147 -107.205)" fill="#fff" opacity="0.28"/>
      <path id="Path_28" data-name="Path 28" d="M256.1,183.285c0-.775,1.548-25.822,12.647-40.565-4.4,15.241-6.456,39.791-6.456,39.791Z" transform="translate(-251.695 -125.986)" fill="#fff"/>
    </g>
    <path id="Path_258698" data-name="Path 258698" d="M10.068,0A10.077,10.077,0,1,1,0,10.077,10.072,10.072,0,0,1,10.068,0Z" transform="translate(175.081 96.214)" fill="#fff" stroke="#1b67e0" stroke-width="1.3"/>
    <path id="Path_258697" data-name="Path 258697" d="M10.068,0A10.077,10.077,0,1,1,0,10.077,10.072,10.072,0,0,1,10.068,0Z" transform="translate(103.45 139.62)" fill="#fff" stroke="#1b67e0" stroke-width="1.3"/>
    <ellipse id="Ellipse_6" data-name="Ellipse 6" cx="10.068" cy="10.077" rx="10.068" ry="10.077" transform="translate(103.45 173.339)" fill="#fff" stroke="#1b67e0" stroke-width="1.3"/>
    <path id="Path_258691" data-name="Path 258691" d="M0,0H4.644V95.339H0Z" transform="translate(75.657 129.675)" fill="#8de969" stroke="#fff" stroke-width="0.75"/>
    <rect id="Rectangle_2" data-name="Rectangle 2" width="3.096" height="0.649" transform="translate(75.89 132.321)" fill="#fff"/>
    <rect id="Rectangle_3" data-name="Rectangle 3" width="3.096" height="0.649" transform="translate(75.89 139.104)" fill="#fff"/>
    <rect id="Rectangle_4" data-name="Rectangle 4" width="3.096" height="0.649" transform="translate(75.89 145.886)" fill="#fff"/>
    <rect id="Rectangle_5" data-name="Rectangle 5" width="3.096" height="0.649" transform="translate(75.89 152.669)" fill="#fff"/>
    <rect id="Rectangle_6" data-name="Rectangle 6" width="3.096" height="0.649" transform="translate(75.89 159.452)" fill="#fff"/>
    <rect id="Rectangle_7" data-name="Rectangle 7" width="3.096" height="0.649" transform="translate(75.89 166.235)" fill="#d5dfff"/>
    <rect id="Rectangle_8" data-name="Rectangle 8" width="3.096" height="0.649" transform="translate(75.89 173.018)" fill="#fff"/>
    <rect id="Rectangle_9" data-name="Rectangle 9" width="3.096" height="0.649" transform="translate(75.89 179.801)" fill="#fff"/>
    <rect id="Rectangle_10" data-name="Rectangle 10" width="3.096" height="0.649" transform="translate(75.89 186.584)" fill="#fff"/>
    <rect id="Rectangle_11" data-name="Rectangle 11" width="3.096" height="0.649" transform="translate(75.89 193.367)" fill="#fff"/>
    <rect id="Rectangle_12" data-name="Rectangle 12" width="3.096" height="0.649" transform="translate(75.89 200.143)" fill="#fff"/>
    <rect id="Rectangle_13" data-name="Rectangle 13" width="3.096" height="0.649" transform="translate(75.89 206.926)" fill="#fff"/>
    <rect id="Rectangle_14" data-name="Rectangle 14" width="3.096" height="0.649" transform="translate(75.89 213.709)" fill="#fff"/>
    <rect id="Rectangle_15" data-name="Rectangle 15" width="3.096" height="0.649" transform="translate(75.89 220.492)" fill="#fff"/>
    <path id="Path_30" data-name="Path 30" d="M85.638,186.215c-.591,4.352,1.831,9.031,6.361,10.02,10.244,2.255,14.982-15.7,4.058-17.8C88.765,177.038,86.2,182.039,85.638,186.215Z" transform="translate(-31.72 -65.967)" fill="#fff"/>
    <g id="Group_5" data-name="Group 5" transform="translate(53.83 112.225)" clip-path="url(#clip-path-5)">
      <g id="Group_24478" data-name="Group 24478" transform="translate(-4.524 -5.248)" opacity="0.54">
        <path id="Path_258375" data-name="Path 258375" d="M94.3,174.741a10.9,10.9,0,0,0-8.318,9.025c-1.032,5.429,0,6.575,1.573,8.641s.629,3.149.371,3.01-9.564-10.31-9.564-10.31l4.109-12.728,9-2.519Z" transform="translate(-78.36 -169.86)" fill="#c8cddb"/>
      </g>
    </g>
    <path id="Path_32" data-name="Path 32" d="M85.638,186.215c-.591,4.352,1.831,9.031,6.361,10.02,10.244,2.255,14.982-15.7,4.058-17.8C88.765,177.038,86.2,182.039,85.638,186.215Z" transform="translate(-31.72 -65.967)" fill="none" stroke="#c8cddb" stroke-width="1"/>
    <path id="Path_33" data-name="Path 33" d="M376.449,154.905c-2.177,3.779-6.921,6.046-11.144,4.062-9.5-4.459-2.322-21.583,7.62-16.589C379.557,145.723,378.563,151.252,376.449,154.905Z" transform="translate(-133.795 -52.374)" fill="#fff"/>
    <g id="Group_6" data-name="Group 6" transform="translate(227.056 89.1)" clip-path="url(#clip-path-6)">
      <g id="Group_24478-2" data-name="Group 24478" transform="translate(4.033 -2.314)" opacity="0.54">
        <path id="Path_258375-2" data-name="Path 258375" d="M374.949,139.985a10.924,10.924,0,0,1,1.107,12.231c-2.479,4.931-4,5.234-6.506,5.863s-2.454,2.11-2.133,2.167S381.26,157.9,381.26,157.9l4.486-12.6-5.581-7.5Z" transform="translate(-367.261 -137.8)" fill="#c8cddb"/>
      </g>
    </g>
    <path id="Path_35" data-name="Path 35" d="M376.449,154.905c-2.177,3.779-6.921,6.046-11.144,4.062-9.5-4.459-2.322-21.583,7.62-16.589C379.557,145.723,378.563,151.252,376.449,154.905Z" transform="translate(-133.795 -52.374)" fill="none" stroke="#c8cddb" stroke-width="1"/>
    <path id="Path_36" data-name="Path 36" d="M96.133,211.533Z" transform="translate(-35.312 -78.016)" fill="#fff" stroke="#c8cddb" stroke-width="1"/>
    <path id="Path_37" data-name="Path 37" d="M89.856,241s.031,0,.038-.044a.952.952,0,0,0,.094-.731.938.938,0,0,0-.428-.561.905.905,0,0,0-.73-.094,3.024,3.024,0,0,1-.629.183,2.893,2.893,0,0,1-.522,0,2.86,2.86,0,0,1-.315-.076c-5.839-3.225-7.859-7.161-9.375-13.811-.849-3.779-.447-3.653-1.485-7.325-.9-3.193-1.976-7.28-4.033-9.113h0c-2.171-1.952-9.621-4.453-13.214-4.409-7.828.145-15.4,2.274-20.727,8.817-7.677,9.4-7.89,17.2-6.764,28.668.434,4.364,3.907,4.339,4.065.479a.905.905,0,0,0,.944,0,.964.964,0,0,0,.34-1.26,11.894,11.894,0,0,1-.629-1.26l-.164-.189-.126-.315c-.076-.2-.145-.409-.214-.63a11.12,11.12,0,0,1-.283-1.115,26.96,26.96,0,0,1,7.072-18.686,20.886,20.886,0,0,1,11.9-6.966,93.65,93.65,0,0,0-3.436,8.981A98.836,98.836,0,0,0,46.421,253.5c.094,8.66.459,17.206-1.051,25.778-1.4,7.91-2.945,12.709-5.33,20.374l-.076.189a2.578,2.578,0,0,0-.17.63l-.245.794c-.969,3.1,3.889,4.409,4.851,1.341.164-.529.327-1.058.5-1.593a155.809,155.809,0,0,0,11.6-46.517,68.558,68.558,0,0,1,6.921,15.04q1.787,7.91,3.064,15.921c.164,1.423.68,4.409.787,5.309.447,3.237.837,6.481,1.151,9.73a2.818,2.818,0,0,0,.12.592c0,.391,0,.775.038,1.165.157,3.231,5.191,3.25,5.034,0-.05-1.058-.094-3.18-.094-3.18v-1.3a132.368,132.368,0,0,0-7.286-45.623,9.079,9.079,0,0,1-.333-1.165,33.266,33.266,0,0,1,4.618-29.33c.812,2.9,1.309,5.889,2.517,9.756,2.347,7.558,6.588,11,13.843,14.038C90.649,247.033,93,243.022,89.856,241Z" transform="translate(-11.593 -75.898)" fill="#fff"/>
    <g id="Group_7" data-name="Group 7" transform="translate(19.673 129.121)" clip-path="url(#clip-path-7)">
      <path id="Path_38" data-name="Path 38" d="M50.726,228.62c-.289,3.873-2.353,26.451-.516,42.921s-2.68,25.387-4.518,30.356c-1.661,4.49-2.775,7.268-2.517,9.4a4.315,4.315,0,0,0,1.649,3l-6.714-1.392-.68-14.536,6.682-41.567Z" transform="translate(-33.552 -213.756)" fill="#c8cddb" opacity="0.54"/>
      <path id="Path_39" data-name="Path 39" d="M63.537,202.787c-11.622-.132-23.741,4.043-28.655,13.95-8.91,17.956-4.26,30.747-4.65,30.363s-1.932-.39-1.932-.39l-2.97-21.961,10.842-25.582,18.587-1.675Z" transform="translate(-29.065 -202.232)" fill="#c8cddb" opacity="0.54"/>
      <path id="Path_40" data-name="Path 40" d="M92.56,231.04s1.454-3.684,2.127-2.425,2.227,16.759,9,23.057c-4.26-.29-8.614-3.193-8.614-3.193Z" transform="translate(-53.993 -213.657)" fill="#c8cddb" opacity="0.54"/>
    </g>
    <path id="Path_42" data-name="Path 42" d="M89.856,241s.031,0,.038-.044a.952.952,0,0,0,.094-.731.938.938,0,0,0-.428-.561.905.905,0,0,0-.73-.094,3.024,3.024,0,0,1-.629.183,2.893,2.893,0,0,1-.522,0,2.86,2.86,0,0,1-.315-.076c-5.839-3.225-7.859-7.161-9.375-13.811-.849-3.779-.447-3.653-1.485-7.325-.9-3.193-1.976-7.28-4.033-9.113h0c-2.171-1.952-9.621-4.453-13.214-4.409-7.828.145-15.4,2.274-20.727,8.817-7.677,9.4-7.89,17.2-6.764,28.668.434,4.364,3.907,4.339,4.065.479a.905.905,0,0,0,.944,0,.964.964,0,0,0,.34-1.26,11.894,11.894,0,0,1-.629-1.26l-.164-.189-.126-.315c-.076-.2-.145-.409-.214-.63a11.12,11.12,0,0,1-.283-1.115,26.96,26.96,0,0,1,7.072-18.686,20.886,20.886,0,0,1,11.9-6.966,93.65,93.65,0,0,0-3.436,8.981A98.836,98.836,0,0,0,46.421,253.5c.094,8.66.459,17.206-1.051,25.778-1.4,7.91-2.945,12.709-5.33,20.374l-.076.189a2.578,2.578,0,0,0-.17.63l-.245.794c-.969,3.1,3.889,4.409,4.851,1.341.164-.529.327-1.058.5-1.593a155.809,155.809,0,0,0,11.6-46.517,68.558,68.558,0,0,1,6.921,15.04q1.787,7.91,3.064,15.921c.164,1.423.68,4.409.787,5.309.447,3.237.837,6.481,1.151,9.73a2.818,2.818,0,0,0,.12.592c0,.391,0,.775.038,1.165.157,3.231,5.191,3.25,5.034,0-.05-1.058-.094-3.18-.094-3.18v-1.3a132.368,132.368,0,0,0-7.286-45.623,9.079,9.079,0,0,1-.333-1.165,33.266,33.266,0,0,1,4.618-29.33c.812,2.9,1.309,5.889,2.517,9.756,2.347,7.558,6.588,11,13.843,14.038C90.649,247.033,93,243.022,89.856,241Z" transform="translate(-11.593 -75.898)" fill="none" stroke="#c8cddb" stroke-width="1"/>
    <path id="Path_43" data-name="Path 43" d="M49.248,369.169l-2.385-3.81a2.911,2.911,0,0,0-3.807-.535,2.407,2.407,0,0,0-.667,3.451l2.385,3.779a2.877,2.877,0,0,0,3.775.542,2.407,2.407,0,0,0,.7-3.426Z" transform="translate(-15.548 -134.884)" fill="#fff" stroke="#c8cddb" stroke-width="1"/>
    <path id="Path_44" data-name="Path 44" d="M97.476,364.716a16.634,16.634,0,0,1-3.316-.806A2.2,2.2,0,0,0,93,368.142a22.185,22.185,0,0,0,4.48.957,2.2,2.2,0,0,0,2.19-2.192A2.251,2.251,0,0,0,97.476,364.716Z" transform="translate(-33.924 -134.701)" fill="#fff" stroke="#c8cddb" stroke-width="1"/>
    <path id="Path_45" data-name="Path 45" d="M341.281,224.322c-.831-7.469-1.145-15.153.749-22.49,1.888-7.211,5.537-13.736,9.149-20.154.547-.976.245-4.069-3.146-5.838-5.418-2.746-11.194-1.845-16.542.63-6.078,2.8-10.785,6.928-18.789,7.879a14.278,14.278,0,0,1-3-.208,17.515,17.515,0,0,1-7.809-3.206,8.728,8.728,0,0,0-.478-1.575,1.046,1.046,0,0,0-.428-.567.955.955,0,0,0-.73-.094.975.975,0,0,0-.566.435h0c-2.63-1.814-6.16,1.927-3.624,4.314,9.539,8.975,22.205,7.469,33.116,2.519-4.134,13.66-8.646,27.308-11.955,41.176a98.1,98.1,0,0,0-2.618,19.2,67.923,67.923,0,0,0,.315,11.966,98.893,98.893,0,0,0,1.963,12.734c.8,3.558,6.261,2.053,5.462-1.505a89.671,89.671,0,0,1-1.686-10.48c0-.063-.038-2.935-.057-3.6-.289-12.338,3.92-22.975,10.7-32.976,1.888,15.436,13.214,43.991,14.365,47.443s6.613,1.971,5.462-1.505a216.241,216.241,0,0,1-9.847-44.1Z" transform="translate(-109.45 -64.473)" fill="#fff"/>
    <g id="Group_8" data-name="Group 8" transform="translate(185.741 109.683)" clip-path="url(#clip-path-8)">
      <path id="Path_46" data-name="Path 46" d="M364.415,171.945c6.456,2.582,9.294,7.488,5.663,12.917s-8,22.219-6.714,32.813,8.262,34.884,18.329,45.478S371.11,213.8,371.11,213.8l13.962-36.415-9.8-7.236Z" transform="translate(-320.382 -172.673)" fill="#efefef"/>
    </g>
    <path id="Path_48" data-name="Path 48" d="M341.281,224.322c-.831-7.469-1.145-15.153.749-22.49,1.888-7.211,5.537-13.736,9.149-20.154.547-.976.245-4.069-3.146-5.838-5.418-2.746-11.194-1.845-16.542.63-6.078,2.8-10.785,6.928-18.789,7.879a14.278,14.278,0,0,1-3-.208,17.515,17.515,0,0,1-7.809-3.206,8.728,8.728,0,0,0-.478-1.575,1.046,1.046,0,0,0-.428-.567.955.955,0,0,0-.73-.094.975.975,0,0,0-.566.435h0c-2.63-1.814-6.16,1.927-3.624,4.314,9.539,8.975,22.205,7.469,33.116,2.519-4.134,13.66-8.646,27.308-11.955,41.176a98.1,98.1,0,0,0-2.618,19.2,67.923,67.923,0,0,0,.315,11.966,98.893,98.893,0,0,0,1.963,12.734c.8,3.558,6.261,2.053,5.462-1.505a89.671,89.671,0,0,1-1.686-10.48c0-.063-.038-2.935-.057-3.6-.289-12.338,3.92-22.975,10.7-32.976,1.888,15.436,13.214,43.991,14.365,47.443s6.613,1.971,5.462-1.505a216.241,216.241,0,0,1-9.847-44.1Z" transform="translate(-109.45 -64.473)" fill="none" stroke="#c8cddb" stroke-width="1"/>
    <path id="Path_49" data-name="Path 49" d="M332.244,331.432l-6.387.794a2.6,2.6,0,0,0-2.517,2.519,2.513,2.513,0,0,0,2.517,2.519l6.387-.794a2.6,2.6,0,0,0,2.517-2.519A2.529,2.529,0,0,0,332.244,331.432Z" transform="translate(-119.887 -122.692)" fill="#fff" stroke="#c8cddb" stroke-width="1"/>
    <path id="Path_50" data-name="Path 50" d="M379.776,331.121a2.575,2.575,0,0,0-3.1-1.757l-5.034.768a2.534,2.534,0,0,0-1.762,3.1,2.581,2.581,0,0,0,3.1,1.757l5.034-.768A2.535,2.535,0,0,0,379.776,331.121Z" transform="translate(-137.116 -121.915)" fill="#fff" stroke="#c8cddb" stroke-width="1"/>
    <path id="Path_51" data-name="Path 51" d="M187.635,233.227a7.85,7.85,0,0,1-7.846,7.847,7.49,7.49,0,0,1-1.258-.1,7.848,7.848,0,0,0,0-15.493,7.484,7.484,0,0,1,1.258-.1A7.85,7.85,0,0,1,187.635,233.227Z" transform="translate(-66.195 -83.436)" fill="#d5dfff"/>
    <path id="Path_52" data-name="Path 52" d="M187.865,286.617a7.844,7.844,0,0,1-7.846,7.847,7.542,7.542,0,0,1-1.258-.1,7.848,7.848,0,0,0,0-15.493,7.539,7.539,0,0,1,1.258-.1A7.844,7.844,0,0,1,187.865,286.617Z" transform="translate(-66.28 -103.201)" fill="#d5dfff"/>
    <path id="Path_53" data-name="Path 53" d="M300.475,163.94a7.844,7.844,0,0,1-7.846,7.835,7.544,7.544,0,0,1-1.258-.1,7.848,7.848,0,0,0,0-15.493,7.545,7.545,0,0,1,1.258-.1,7.844,7.844,0,0,1,7.846,7.86Z" transform="translate(-108.033 -57.781)" fill="#d5dfff"/>
    <path id="Path_54" data-name="Path 54" d="M143.988,138.726V53.848c0-19.184-8.13-20.928-14.516-20.928s-16.07,5.3-15.1,16.86c.629,7.728,11.358,12.275,16.58,9.365" transform="translate(-42.381 -12.187)" fill="none" stroke="#8de969" stroke-linecap="round" stroke-width="3"/>
    <path id="Path_55" data-name="Path 55" d="M190.466,127.925s-.906-66.274-.906-77.32S195.387,32,203.516,32s11.615,8.137,11.615,13.371-7.551,10.467-10.458,7.558" transform="translate(-70.285 -11.846)" fill="none" stroke="#8de969" stroke-linecap="round" stroke-width="3"/>
  </g>
</svg>
