<svg xmlns="http://www.w3.org/2000/svg" width="125" height="64.675" viewBox="0 0 125 64.675">
  <g id="logo-o4b-kontra" transform="translate(-121.383 -43.351)">
    <g id="Group_24444" data-name="Group 24444" transform="translate(121.383 43.351)">
      <g id="Rectangle_2794" data-name="Rectangle 2794" fill="none" stroke="#e1e1e1" stroke-width="0.5">
        <rect width="125" height="64.675" rx="5" stroke="none"/>
        <rect x="0.25" y="0.25" width="124.5" height="64.175" rx="4.75" fill="none"/>
      </g>
      <g id="Group_24435" data-name="Group 24435" transform="translate(11.234 11.21)">
        <path id="Path_258261" data-name="Path 258261" d="M-49.991-7.984a1.818,1.818,0,0,0-1.667.989v-.958h-.374v5.579h.39V-4.813a1.821,1.821,0,0,0,1.652.958,1.967,1.967,0,0,0,2.01-2.065A1.971,1.971,0,0,0-49.991-7.984Zm-.023,3.779a1.613,1.613,0,0,1-1.636-1.714,1.613,1.613,0,0,1,1.636-1.714,1.619,1.619,0,0,1,1.644,1.714A1.619,1.619,0,0,1-50.015-4.205Zm5.064-3.779a2.481,2.481,0,0,0-1.628.577l.195.28a2.111,2.111,0,0,1,1.4-.514A1.059,1.059,0,0,1-43.774-6.48v.327h-1.395c-1.13,0-1.519.522-1.519,1.138,0,.693.553,1.161,1.465,1.161a1.562,1.562,0,0,0,1.465-.756v.725h.374V-6.465A1.383,1.383,0,0,0-44.95-7.984Zm-.218,3.81c-.717,0-1.13-.327-1.13-.857,0-.467.3-.818,1.138-.818h1.387v.764A1.394,1.394,0,0,1-45.168-4.174Zm4.231-2.891v-.888h-.374v4.067h.39V-6a1.4,1.4,0,0,1,1.441-1.6c.031,0,.062.008.094.008v-.382A1.544,1.544,0,0,0-40.938-7.065ZM-35.8-4.416a.935.935,0,0,1-.631.226c-.5,0-.756-.288-.756-.81V-7.618H-35.9v-.335H-37.19v-.888h-.39v.888h-.748v.335h.748v2.657a1.009,1.009,0,0,0,1.106,1.106,1.234,1.234,0,0,0,.834-.288Zm3.7-3.568a1.679,1.679,0,0,0-1.613.912v-.88h-.374v4.067h.39V-6.052a1.451,1.451,0,0,1,1.543-1.582,1.232,1.232,0,0,1,1.317,1.4v2.345h.39V-6.262A1.544,1.544,0,0,0-32.1-7.984Zm7.176,2.049a1.925,1.925,0,0,0-1.94-2.049,1.945,1.945,0,0,0-1.948,2.065,2,2,0,0,0,2.1,2.065,1.947,1.947,0,0,0,1.535-.662l-.226-.257a1.64,1.64,0,0,1-1.3.569,1.638,1.638,0,0,1-1.722-1.621h3.5C-24.935-5.865-24.927-5.9-24.927-5.935Zm-1.94-1.706A1.538,1.538,0,0,1-25.309-6.13h-3.117A1.537,1.537,0,0,1-26.867-7.641Zm3.989.577v-.888h-.374v4.067h.39V-6a1.4,1.4,0,0,1,1.441-1.6c.031,0,.062.008.093.008v-.382A1.544,1.544,0,0,0-22.878-7.065Zm6.856-2.3a.935.935,0,0,1,.631.226l.156-.3a1.215,1.215,0,0,0-.8-.265,1.038,1.038,0,0,0-1.13,1.122v.623h-.748v.335h.748v3.732h.39V-7.618h1.293v-.335h-1.3v-.592C-16.785-9.082-16.528-9.363-16.021-9.363ZM-12.7-3.855a1.981,1.981,0,0,0,2.034-2.065A1.981,1.981,0,0,0-12.7-7.984a1.981,1.981,0,0,0-2.034,2.065A1.981,1.981,0,0,0-12.7-3.855Zm0-.351a1.613,1.613,0,0,1-1.636-1.714A1.613,1.613,0,0,1-12.7-7.633a1.613,1.613,0,0,1,1.636,1.714A1.613,1.613,0,0,1-12.7-4.205ZM-8.62-7.065v-.888h-.374v4.067h.39V-6a1.4,1.4,0,0,1,1.441-1.6c.031,0,.062.008.093.008v-.382A1.544,1.544,0,0,0-8.62-7.065Zm8.5-.888L-1.748-4.314-3.376-7.953h-.413L-1.958-3.9l-.218.491c-.249.553-.522.725-.9.725a.99.99,0,0,1-.756-.319l-.195.3a1.3,1.3,0,0,0,.943.366c.538,0,.943-.242,1.27-.989L.278-7.953Zm3.187,4.1A1.981,1.981,0,0,0,5.1-5.919,1.981,1.981,0,0,0,3.067-7.984,1.981,1.981,0,0,0,1.034-5.919,1.981,1.981,0,0,0,3.067-3.855Zm0-.351A1.613,1.613,0,0,1,1.431-5.919,1.613,1.613,0,0,1,3.067-7.633,1.613,1.613,0,0,1,4.7-5.919,1.613,1.613,0,0,1,3.067-4.205Zm6.88-3.748v2.166A1.43,1.43,0,0,1,8.459-4.205a1.238,1.238,0,0,1-1.34-1.4V-7.953h-.39v2.376a1.557,1.557,0,0,0,1.7,1.722,1.6,1.6,0,0,0,1.535-.9v.873h.374V-7.953Z" transform="translate(52.38 44.598)" fill="#fff"/>
        <g id="Group_24431" data-name="Group 24431" transform="translate(0 0)">
          <path id="Path_258256" data-name="Path 258256" d="M73.393-1.743a8.533,8.533,0,0,0-8.224,5.7v-13.6h-.712V16.769h.712V11.145a8.517,8.517,0,0,0,8.224,5.732c5.055,0,8.936-3.88,8.936-9.327S78.448-1.743,73.393-1.743Zm0,17.943c-4.7,0-8.224-3.56-8.224-8.651s3.524-8.615,8.224-8.615,8.224,3.524,8.224,8.615S78.092,16.2,73.393,16.2Z" transform="translate(-19.612 10.011)" fill="#fff"/>
          <path id="Path_258256_-_Outline" data-name="Path 258256 - Outline" d="M63.807-10.3h1.442V2.022a8.779,8.779,0,0,1,2.563-2.8A9.455,9.455,0,0,1,79.733.321,9.14,9.14,0,0,1,81.7,3.381a10.567,10.567,0,0,1,.711,3.883,9.889,9.889,0,0,1-2.675,6.96,9.421,9.421,0,0,1-11.922,1.108,8.781,8.781,0,0,1-2.562-2.813v4.33H63.807Zm9.3,25.846c4.554,0,7.859-3.485,7.859-8.286,0-4.78-3.305-8.25-7.859-8.25s-7.859,3.47-7.859,8.25C65.249,12.065,68.554,15.55,73.108,15.55ZM65.117,3.773l-.58-.1V6.624A9.871,9.871,0,0,1,65.117,3.773Zm0,6.983A9.917,9.917,0,0,1,64.537,7.9v2.952Z" transform="translate(-19.327 10.296)" fill="#fff"/>
          <path id="Path_258258" data-name="Path 258258" d="M9.993,19.489V12.772H-2.574V10.508l13.4-17.36h1.736V10.432H15.88v2.34H12.559v6.717ZM.143,10.432H10.257V-2.814Z" transform="translate(24.718 7.217)" fill="#27c722"/>
          <path id="Path_258259" data-name="Path 258259" d="M-3.655,20.892c5.126,0,8.936-3.88,8.936-9.327S1.472,2.274-3.655,2.274s-8.936,3.845-8.936,9.292S-8.781,20.892-3.655,20.892Zm0-.676c-4.7,0-8.224-3.56-8.224-8.651S-8.354,2.95-3.655,2.95s8.224,3.524,8.224,8.615S1.044,20.216-3.655,20.216Z" transform="translate(12.956 6.048)" fill="#fff"/>
          <path id="Path_258259_-_Outline" data-name="Path 258259 - Outline" d="M-3.94,20.973a9.129,9.129,0,0,1-6.653-2.733,9.148,9.148,0,0,1-1.948-3.073,10.726,10.726,0,0,1-.7-3.887,10.683,10.683,0,0,1,.7-3.882,9.085,9.085,0,0,1,1.948-3.061A9.152,9.152,0,0,1-3.94,1.624,9.152,9.152,0,0,1,2.713,4.338,9.085,9.085,0,0,1,4.661,7.4a10.683,10.683,0,0,1,.7,3.882,10.726,10.726,0,0,1-.7,3.887A9.148,9.148,0,0,1,2.713,18.24,9.129,9.129,0,0,1-3.94,20.973Zm0-17.943c-4.554,0-7.859,3.47-7.859,8.25,0,4.8,3.3,8.286,7.859,8.286s7.859-3.485,7.859-8.286C3.919,6.5.614,3.03-3.94,3.03Z" transform="translate(13.241 6.333)" fill="#fff"/>
        </g>
        <g id="Group_24432" data-name="Group 24432" transform="translate(65.432 0.365)">
          <path id="Path_257616" data-name="Path 257616" d="M137.289,6.294c-2.754.34-3.087-4-1.943-5.714a1.906,1.906,0,0,1,1.675-.558c3.533.271,3.457,5.878.268,6.272" transform="translate(-109.75 -0.004)" fill="#27c722" fill-rule="evenodd"/>
          <path id="Path_257617" data-name="Path 257617" d="M36.207,29.469c-2.648-1.3-.96-6.1,2.151-4.059,1.116.736.223,5.225-2.151,4.059" transform="translate(-28.407 -20.279)" fill="#27c722" fill-rule="evenodd"/>
          <path id="Path_257618" data-name="Path 257618" d="M63.291,24.872c3.152-.6,3.083,4.617.63,4.809-2.17.169-2.983-4.362-.63-4.809h0" transform="translate(-50.363 -20.205)" fill="#27c722" fill-rule="evenodd"/>
          <path id="Path_257619" data-name="Path 257619" d="M102.24,29.458c-2.648-1.3-.956-6.112,2.15-4.059,1.3.859.223,5.225-2.15,4.059" transform="translate(-82.217 -20.267)" fill="#27c722" fill-rule="evenodd"/>
          <path id="Path_257620" data-name="Path 257620" d="M43.248,47.276c-.32-.642-.126-1.8-.839-2.047-1.476.058,1.744,11.111,2.075,12.3.578,2.077.93,3.8,1.519,6.042a1.9,1.9,0,0,1-2.661,2.174c-2.018-1.114-2.321-6.994-3.288-8.892-.881-1.731-1.592-.636-2.369,1.123-.7,1.577-1.015,4-2.9,4.652a4.648,4.648,0,0,1-.093,1.3c.078.389.662.27.837.558,1.052,1.674,1.854,9.333.167,10.78-1.428,1.225-2.168.149-2.52-1.344-.231-.976-.1-3.594-.2-3.734-.534.054-.774-.232-.976-.679-.052,1.523-2.572,1.582-2.782.418-.342-1.887-1.781-6.1-.945-7.206.264-.387,1.774-.591,2.066.06a26.325,26.325,0,0,1,1.382,5.054c.264-1.936.091-5.021,1.025-6.045-.139-.236-.327-.909-.095-1.211-.394-.337-1.235-3.105-2.112-4.494-.424-.671-1.733-.829-1.672-.071.24,1.289.562,2.76.759,4.245.177,1.333-2.23,1.4-2.536.465a6.469,6.469,0,0,1-1.054,1.923,1.617,1.617,0,0,1-2.144-.43c-.271-1.229,1.218-4.889,1.385-6.361-.989-1.96-2.9,4.043-3.321,4.816a1.349,1.349,0,0,1-1.768,0c-.984-1.33-1.649-6.077-3.276-4.879-1.925,1.415-1.119,4.874-2.7,5.108-4.682.692,2.172-11.345.768-13.718-.677.1-.56,1.11-.872,1.571a.845.845,0,0,1-1.638-.175c-.048-2.062,0-3.643,2.231-4.281a11.987,11.987,0,0,1,6.326.56c2.592-1.132,8.578-1.235,11.256-.281,2.562-3.185,5.1-3.117,9.138-3.083,3.423.03,4.3,1.889,4.256,5.314a1.783,1.783,0,0,1-2.417.465m-15.906-.093c-1.006-.115-.273,1.9-.095,2.605-.017-.867.526-2.549.095-2.605m7.9,2.977a2,2,0,0,1-2.417-.558c-.589,2.354.539,4.522,1.116,6.326.441-1.856,1.419-3.667,1.3-5.768m-14.138,4a12.64,12.64,0,0,0,.651-3.44c-1.08-.268-1.395,0-1.395,0a8.669,8.669,0,0,0,.744,3.44" transform="translate(-10.134 -33.908)" fill="#27c722" fill-rule="evenodd"/>
          <path id="Path_257621" data-name="Path 257621" d="M184.812,87.424c-2.021.154-1.549-5.82.279-4.559.318.219.422,4.439-.279,4.559" transform="translate(-149.471 -67.362)" fill="#27c722" fill-rule="evenodd"/>
          <path id="Path_257622" data-name="Path 257622" d="M11.055,88.9c.708.472.7,3.375-.253,3.475-1.227.13-.848-4.033.253-3.475" transform="translate(-8.174 -72.381)" fill="#27c722" fill-rule="evenodd"/>
          <path id="Path_257623" data-name="Path 257623" d="M53.75,153.551a1.141,1.141,0,0,1,2.047-.465c1.121,1.594.143,4.424-.093,6.326a1.925,1.925,0,0,1-2.605-.839c-.96,2.689-2.687.721-3-.971-.34-1.861.7-3.875.112-5.725a1.551,1.551,0,0,1,2.884,0,24.025,24.025,0,0,0,.093,5.023c.262-1.039.366-2.237.558-3.349" transform="translate(-40.73 -122.934)" fill="#27c722" fill-rule="evenodd"/>
          <path id="Path_257624" data-name="Path 257624" d="M1.506,153.661a1.315,1.315,0,0,1,1.727-.677c1.954.954-1.134,10.7-3.176,7.538-.338-.524,1.036-5.681,1.449-6.863" transform="translate(-0.004 -124.557)" fill="#27c722" fill-rule="evenodd"/>
          <path id="Path_257625" data-name="Path 257625" d="M183.973,185.249c-.188,1.858-1.748,1.811-2.328.634-.753-1.858-2.293-6.692-.164-7.78,3.26-1.666,2.49,6.93,2.49,7.146" transform="translate(-146.951 -144.945)" fill="#27c722" fill-rule="evenodd"/>
        </g>
      </g>
    </g>
  </g>
</svg>
