<svg xmlns="http://www.w3.org/2000/svg" width="154.619" height="80" viewBox="0 0 154.619 80">
  <g id="logo-o4b" transform="translate(-121.383 -43.351)">
    <g id="Group_24444" data-name="Group 24444" transform="translate(121.383 43.351)">
      <g id="Rectangle_2794" data-name="Rectangle 2794" fill="none" stroke="#e1e1e1" stroke-width="0.5">
        <rect width="154.619" height="80" rx="5" stroke="none"/>
        <rect x="0.25" y="0.25" width="154.119" height="79.5" rx="4.75" fill="none"/>
      </g>
      <g id="Group_24435" data-name="Group 24435" transform="translate(13.896 13.867)">
        <path id="Path_258261" data-name="Path 258261" d="M-49.508-7.578A2.248,2.248,0,0,0-51.57-6.354V-7.539h-.463v6.9h.482V-3.655A2.252,2.252,0,0,0-49.508-2.47a2.433,2.433,0,0,0,2.486-2.554A2.438,2.438,0,0,0-49.508-7.578ZM-49.536-2.9a2,2,0,0,1-2.024-2.12,2,2,0,0,1,2.024-2.12A2,2,0,0,1-47.5-5.024,2,2,0,0,1-49.536-2.9Zm6.264-4.674a3.068,3.068,0,0,0-2.014.713l.241.347a2.611,2.611,0,0,1,1.735-.636,1.31,1.31,0,0,1,1.494,1.436v.4h-1.725c-1.4,0-1.879.646-1.879,1.407,0,.858.684,1.436,1.812,1.436A1.932,1.932,0,0,0-41.8-3.4v.9h.463V-5.7A1.711,1.711,0,0,0-43.272-7.578Zm-.27,4.713c-.887,0-1.4-.4-1.4-1.06,0-.578.366-1.012,1.407-1.012h1.715v.944A1.724,1.724,0,0,1-43.542-2.865Zm5.233-3.575v-1.1h-.463v5.031h.482V-5.13a1.737,1.737,0,0,1,1.783-1.985c.039,0,.077.01.116.01v-.472A1.91,1.91,0,0,0-38.309-6.441Zm6.351,3.277a1.156,1.156,0,0,1-.781.279c-.617,0-.935-.357-.935-1V-7.125h1.6v-.414h-1.6v-1.1h-.482v1.1h-.925v.414h.925v3.286A1.248,1.248,0,0,0-32.787-2.47a1.527,1.527,0,0,0,1.031-.357Zm4.578-4.414A2.077,2.077,0,0,0-29.375-6.45V-7.539h-.463v5.031h.482V-5.188a1.8,1.8,0,0,1,1.908-1.956,1.523,1.523,0,0,1,1.629,1.735v2.9h.482V-5.448A1.91,1.91,0,0,0-27.38-7.578ZM-18.5-5.043a2.382,2.382,0,0,0-2.4-2.535,2.406,2.406,0,0,0-2.409,2.554A2.47,2.47,0,0,0-20.721-2.47a2.408,2.408,0,0,0,1.9-.819l-.279-.318a2.029,2.029,0,0,1-1.609.7,2.027,2.027,0,0,1-2.13-2h4.327C-18.514-4.956-18.5-5-18.5-5.043Zm-2.4-2.111a1.9,1.9,0,0,1,1.927,1.87h-3.855A1.9,1.9,0,0,1-20.9-7.154Zm4.934.713v-1.1h-.463v5.031h.482V-5.13a1.737,1.737,0,0,1,1.783-1.985c.039,0,.077.01.116.01v-.472A1.91,1.91,0,0,0-15.969-6.441Zm8.481-2.843A1.156,1.156,0,0,1-6.708-9l.193-.366A1.5,1.5,0,0,0-7.508-9.7a1.284,1.284,0,0,0-1.4,1.388v.771H-9.83v.414h.925v4.616h.482V-7.125h1.6v-.414H-8.433v-.732C-8.433-8.937-8.115-9.284-7.488-9.284ZM-3.383-2.47A2.451,2.451,0,0,0-.867-5.024,2.451,2.451,0,0,0-3.383-7.578,2.451,2.451,0,0,0-5.9-5.024,2.451,2.451,0,0,0-3.383-2.47Zm0-.434a2,2,0,0,1-2.024-2.12,2,2,0,0,1,2.024-2.12,2,2,0,0,1,2.024,2.12A2,2,0,0,1-3.383-2.9Zm5.05-3.537v-1.1H1.2v5.031h.482V-5.13A1.737,1.737,0,0,1,3.469-7.115c.039,0,.077.01.116.01v-.472A1.91,1.91,0,0,0,1.667-6.441Zm10.514-1.1-2.014,4.5-2.014-4.5H7.642L9.907-2.528l-.27.607c-.308.684-.646.9-1.108.9a1.225,1.225,0,0,1-.935-.4l-.241.366A1.607,1.607,0,0,0,8.519-.6c.665,0,1.166-.3,1.571-1.224l2.583-5.715ZM16.123-2.47a2.451,2.451,0,0,0,2.515-2.554,2.451,2.451,0,0,0-2.515-2.554,2.451,2.451,0,0,0-2.515,2.554A2.451,2.451,0,0,0,16.123-2.47Zm0-.434A2,2,0,0,1,14.1-5.024a2,2,0,0,1,2.024-2.12,2,2,0,0,1,2.024,2.12A2,2,0,0,1,16.123-2.9Zm8.51-4.636V-4.86A1.768,1.768,0,0,1,22.792-2.9a1.531,1.531,0,0,1-1.658-1.735v-2.9h-.482V-4.6a1.925,1.925,0,0,0,2.1,2.13,1.983,1.983,0,0,0,1.9-1.118v1.079h.463V-7.539Z" transform="translate(52.462 52.867)" fill="#555"/>
        <g id="Group_24431" data-name="Group 24431" transform="translate(0 0)">
          <path id="Path_258256" data-name="Path 258256" d="M75.51.13A10.555,10.555,0,0,0,65.338,7.176V-9.646h-.881V23.029h.881V16.071a10.536,10.536,0,0,0,10.172,7.09c6.253,0,11.053-4.8,11.053-11.537S81.763.13,75.51.13Zm0,22.194c-5.813,0-10.172-4.4-10.172-10.7S69.7.967,75.51.967s10.172,4.36,10.172,10.657S81.323,22.324,75.51,22.324Z" transform="translate(-8.985 10.098)" fill="#555"/>
          <path id="Path_258256_-_Outline" data-name="Path 258256 - Outline" d="M63.807-10.3h1.784V4.941a10.86,10.86,0,0,1,3.17-3.458A11.7,11.7,0,0,1,83.506,2.836a11.306,11.306,0,0,1,2.431,3.785,13.071,13.071,0,0,1,.879,4.8,12.232,12.232,0,0,1-3.309,8.61A11.653,11.653,0,0,1,68.76,21.405a10.862,10.862,0,0,1-3.169-3.479v5.356H63.807Zm11.5,31.97c5.633,0,9.721-4.31,9.721-10.249,0-5.913-4.088-10.205-9.721-10.205s-9.721,4.292-9.721,10.205C65.591,17.364,69.679,21.674,75.312,21.674ZM65.427,7.107l-.717-.125v3.652A12.209,12.209,0,0,1,65.427,7.107Zm0,8.638a12.267,12.267,0,0,1-.715-3.527v3.651Z" transform="translate(-8.787 10.296)" fill="#555"/>
          <path id="Path_258258" data-name="Path 258258" d="M12.971,25.731V17.422H-2.574v-2.8L14-6.852h2.147v21.38h4.108v2.894H16.145v8.309ZM.787,14.528H13.3V-1.857Z" transform="translate(29.965 7.303)" fill="#27c722"/>
          <path id="Path_258259" data-name="Path 258259" d="M-1.537,25.3C4.8,25.3,9.516,20.5,9.516,13.767S4.8,2.274-1.537,2.274-12.591,7.029-12.591,13.767-7.879,25.3-1.537,25.3Zm0-.837c-5.813,0-10.172-4.4-10.172-10.7S-7.35,3.11-1.537,3.11,8.635,7.47,8.635,13.767,4.275,24.468-1.537,24.468Z" transform="translate(13.042 8.02)" fill="#555"/>
          <path id="Path_258259_-_Outline" data-name="Path 258259 - Outline" d="M-1.736,25.558a11.292,11.292,0,0,1-8.229-3.38,11.316,11.316,0,0,1-2.409-3.8,13.267,13.267,0,0,1-.866-4.808,13.215,13.215,0,0,1,.866-4.8,11.237,11.237,0,0,1,2.41-3.786A11.32,11.32,0,0,1-1.736,1.624,11.32,11.32,0,0,1,6.493,4.981,11.237,11.237,0,0,1,8.9,8.767a13.215,13.215,0,0,1,.866,4.8A13.267,13.267,0,0,1,8.9,18.377a11.316,11.316,0,0,1-2.409,3.8A11.292,11.292,0,0,1-1.736,25.558Zm0-22.194c-5.633,0-9.721,4.292-9.721,10.205,0,5.939,4.088,10.249,9.721,10.249s9.721-4.31,9.721-10.249C7.985,7.655,3.9,3.363-1.736,3.363Z" transform="translate(13.241 8.218)" fill="#555"/>
        </g>
        <g id="Group_24432" data-name="Group 24432" transform="translate(80.936 0.451)">
          <path id="Path_257616" data-name="Path 257616" d="M137.9,7.784c-3.406.421-3.818-4.945-2.4-7.068a2.358,2.358,0,0,1,2.072-.69c4.37.336,4.276,7.271.331,7.758" transform="translate(-103.831 -0.004)" fill="#27c722" fill-rule="evenodd"/>
          <path id="Path_257617" data-name="Path 257617" d="M36.518,30.55c-3.275-1.61-1.187-7.551,2.661-5.021,1.38.911.276,6.463-2.661,5.021" transform="translate(-26.869 -19.181)" fill="#27c722" fill-rule="evenodd"/>
          <path id="Path_257618" data-name="Path 257618" d="M63.628,24.884c3.9-.743,3.814,5.711.78,5.948-2.684.209-3.689-5.4-.78-5.948h0" transform="translate(-47.638 -19.112)" fill="#27c722" fill-rule="evenodd"/>
          <path id="Path_257619" data-name="Path 257619" d="M102.551,30.539c-3.275-1.61-1.182-7.56,2.659-5.021,1.606,1.063.276,6.463-2.659,5.021" transform="translate(-77.783 -19.17)" fill="#27c722" fill-rule="evenodd"/>
          <path id="Path_257620" data-name="Path 257620" d="M50.546,48.648c-.4-.794-.156-2.224-1.037-2.532-1.826.071,2.158,13.743,2.567,15.211.715,2.569,1.15,4.706,1.879,7.473.442,1.672-1.371,3.749-3.291,2.689-2.5-1.378-2.871-8.651-4.067-11-1.09-2.141-1.969-.787-2.93,1.389-.863,1.95-1.256,4.943-3.59,5.755a5.75,5.75,0,0,1-.115,1.612c.1.481.819.334,1.035.69,1.3,2.07,2.293,11.544.207,13.334-1.766,1.516-2.682.184-3.117-1.663-.285-1.208-.12-4.446-.253-4.619-.66.067-.957-.288-1.208-.84-.064,1.884-3.181,1.957-3.441.518-.423-2.335-2.2-7.549-1.168-8.913.327-.478,2.194-.731,2.555.074a32.563,32.563,0,0,1,1.709,6.252c.327-2.394.113-6.21,1.267-7.478-.173-.292-.4-1.125-.117-1.5-.488-.416-1.527-3.841-2.613-5.559-.524-.83-2.144-1.026-2.068-.087.3,1.594.695,3.413.938,5.251.219,1.649-2.758,1.727-3.137.575a8,8,0,0,1-1.3,2.378,2,2,0,0,1-2.652-.531c-.336-1.52,1.507-6.047,1.714-7.869-1.224-2.424-3.581,5-4.108,5.957a1.669,1.669,0,0,1-2.187,0c-1.217-1.645-2.04-7.517-4.053-6.036-2.381,1.75-1.385,6.029-3.344,6.318-5.792.856,2.687-14.033.95-16.968-.837.12-.692,1.373-1.079,1.944a1.045,1.045,0,0,1-2.026-.216c-.06-2.551,0-4.506,2.76-5.295,2.256-.646,5.633-.074,7.825.692,3.206-1.4,10.61-1.527,13.923-.347,3.17-3.94,6.307-3.855,11.3-3.814,4.235.037,5.313,2.337,5.265,6.574-.391.925-2.043,1.194-2.99.575m-19.675-.115c-1.244-.143-.338,2.355-.117,3.222-.021-1.072.651-3.153.117-3.222m9.778,3.682a2.471,2.471,0,0,1-2.99-.69c-.729,2.912.667,5.594,1.38,7.825.545-2.3,1.755-4.536,1.61-7.135M23.161,57.159a15.635,15.635,0,0,0,.805-4.255c-1.336-.331-1.725,0-1.725,0a10.723,10.723,0,0,0,.92,4.255" transform="translate(-9.586 -32.112)" fill="#27c722" fill-rule="evenodd"/>
          <path id="Path_257621" data-name="Path 257621" d="M185.124,88.546c-2.5.191-1.916-7.2.345-5.64.393.271.522,5.49-.345,5.64" transform="translate(-141.409 -63.73)" fill="#27c722" fill-rule="evenodd"/>
          <path id="Path_257622" data-name="Path 257622" d="M11.3,88.917c.876.584.86,4.175-.313,4.3-1.518.161-1.049-4.989.313-4.3" transform="translate(-7.732 -68.478)" fill="#27c722" fill-rule="evenodd"/>
          <path id="Path_257623" data-name="Path 257623" d="M54.631,154.18a1.411,1.411,0,0,1,2.532-.575c1.387,1.971.177,5.472-.115,7.825a2.381,2.381,0,0,1-3.222-1.037c-1.187,3.326-3.324.892-3.705-1.2-.421-2.3.869-4.794.138-7.082.368-1.617,3.2-1.617,3.567,0a29.718,29.718,0,0,0,.115,6.213c.324-1.286.453-2.767.69-4.143" transform="translate(-38.525 -116.308)" fill="#27c722" fill-rule="evenodd"/>
          <path id="Path_257624" data-name="Path 257624" d="M1.862,153.843A1.627,1.627,0,0,1,4,153.006c2.417,1.18-1.4,13.239-3.929,9.325-.419-.649,1.281-7.027,1.792-8.49" transform="translate(-0.004 -117.843)" fill="#27c722" fill-rule="evenodd"/>
          <path id="Path_257625" data-name="Path 257625" d="M184.82,186.993c-.232,2.3-2.162,2.24-2.88.784-.932-2.3-2.836-8.278-.2-9.624,4.032-2.061,3.08,8.573,3.08,8.839" transform="translate(-139.026 -137.139)" fill="#27c722" fill-rule="evenodd"/>
        </g>
      </g>
    </g>
  </g>
</svg>
